<svg width="42" height="63" viewBox="0 0 42 63" fill="none" xmlns="http://www.w3.org/2000/svg">
    <path d="M15.052 58.416H13.38C13.236 58.416 13.124 58.4347 13.044 58.472L12.868 58.112C12.98 58.1387 13.1133 58.152 13.268 58.152H15.052V56.344H13.508C13.1187 57.1173 12.6387 57.8187 12.068 58.448L11.868 58.344C12.556 57.2507 13.0307 55.9413 13.292 54.416C13.5533 54.5013 13.7773 54.5867 13.964 54.672C14.156 54.752 14.2707 54.808 14.308 54.84C14.3507 54.872 14.372 54.9067 14.372 54.944C14.372 54.9813 14.3213 55.0107 14.22 55.032C14.1187 55.0533 14.0467 55.12 14.004 55.232L13.644 56.064H15.052V54.56C15.052 54.288 15.0467 54.0373 15.036 53.808C15.2013 53.8347 15.436 53.8987 15.74 54C16.0493 54.096 16.204 54.1787 16.204 54.248C16.204 54.312 16.0707 54.3813 15.804 54.456V56.064H17.132L17.452 55.592C17.516 55.496 17.572 55.448 17.62 55.448C17.668 55.448 17.8387 55.568 18.132 55.808C18.4253 56.0427 18.572 56.2 18.572 56.28C18.572 56.3227 18.524 56.344 18.428 56.344H15.804V58.152H16.804L17.124 57.68C17.188 57.5893 17.252 57.544 17.316 57.544C17.3853 57.544 17.556 57.664 17.828 57.904C18.1 58.144 18.236 58.2907 18.236 58.344C18.236 58.392 18.18 58.416 18.068 58.416H15.804V60.424H17.428L17.756 59.928C17.8253 59.8267 17.8813 59.776 17.924 59.776C17.972 59.776 18.036 59.808 18.116 59.872C18.196 59.936 18.3213 60.0427 18.492 60.192C18.6627 60.3467 18.7747 60.4533 18.828 60.512C18.8813 60.5707 18.908 60.616 18.908 60.648C18.908 60.6853 18.852 60.704 18.74 60.704H12.404C12.26 60.704 12.148 60.7227 12.068 60.76L11.916 60.384C12.028 60.4107 12.1613 60.424 12.316 60.424H15.052V58.416ZM24.26 55.32C23.62 56.4827 22.9187 57.3653 22.156 57.968L22.06 57.872C22.4333 57.4453 22.7933 56.8667 23.14 56.136C23.492 55.4053 23.7667 54.6507 23.964 53.872C24.1827 53.968 24.3907 54.0667 24.588 54.168C24.7853 54.264 24.8973 54.3253 24.924 54.352C24.9507 54.3787 24.964 54.4027 24.964 54.424C24.964 54.4773 24.908 54.512 24.796 54.528C24.6893 54.544 24.62 54.5893 24.588 54.664C24.556 54.7387 24.476 54.904 24.348 55.16C24.3907 55.1653 24.468 55.168 24.58 55.168H27.972L28.3 54.68C28.3427 54.616 28.3853 54.584 28.428 54.584C28.4707 54.584 28.5453 54.6267 28.652 54.712C28.7587 54.792 28.8707 54.8853 28.988 54.992C29.1107 55.0933 29.1933 55.168 29.236 55.216C29.2787 55.2587 29.3 55.296 29.3 55.328C29.3 55.3867 29.252 55.416 29.156 55.416H24.66C24.516 55.416 24.404 55.4347 24.324 55.472L24.26 55.32ZM24.42 56.488C24.276 56.488 24.164 56.5067 24.084 56.544L23.94 56.216C24.052 56.2427 24.1853 56.256 24.34 56.256H27.428L27.804 55.776C27.8467 55.7173 27.8893 55.688 27.932 55.688C27.98 55.688 28.052 55.736 28.148 55.832C28.244 55.928 28.3587 56.0373 28.492 56.16C28.6307 56.2827 28.7 56.368 28.7 56.416C28.7 56.464 28.644 56.488 28.532 56.488H24.42ZM29.252 58.8C29.236 59.136 29.228 59.448 29.228 59.736C29.228 60.0187 29.2493 60.256 29.292 60.448C29.34 60.64 29.4227 60.856 29.54 61.096C29.5773 61.1653 29.596 61.224 29.596 61.272C29.596 61.3733 29.5133 61.424 29.348 61.424C29.0867 61.424 28.724 61.32 28.26 61.112C27.8013 60.9093 27.444 60.5707 27.188 60.096C26.9373 59.6267 26.8013 58.7787 26.78 57.552H23.604C23.4707 57.552 23.3613 57.5707 23.276 57.608L23.132 57.28C23.244 57.3067 23.3773 57.32 23.532 57.32H26.708L26.884 57.04C26.932 56.9653 26.98 56.928 27.028 56.928C27.0813 56.928 27.228 56.9947 27.468 57.128C27.7133 57.256 27.836 57.352 27.836 57.416C27.836 57.496 27.716 57.552 27.476 57.584C27.46 57.7813 27.452 57.968 27.452 58.144C27.452 58.7093 27.5187 59.1627 27.652 59.504C27.7853 59.8453 27.9533 60.0853 28.156 60.224C28.3587 60.368 28.5187 60.44 28.636 60.44C28.684 60.44 28.7213 60.4187 28.748 60.376C28.7747 60.3333 28.812 60.2107 28.86 60.008C28.9133 59.8107 28.9907 59.408 29.092 58.8H29.252Z" fill="#4E4E4E"/>
    <path d="M0.854797 27.0935C0.854814 20.7598 1.67267 15.9859 8.06838 10.5742C12.6343 6.71072 18.0932 5.06588 24.9272 5.30594C33.8969 5.62102 38.0847 11.628 39.6787 16.8962C41.6536 23.4237 41.6692 31.9991 38.0847 36.9278C35.2749 40.7913 31.0602 43.6011 21.5771 43.9523C12.094 44.3036 7.87931 40.4401 6.12318 38.6839C4.36705 36.9278 0.854781 33.2274 0.854797 27.0935Z" fill="#E8354B"/>
    <path d="M8.06842 14.7891C10.8782 18.6526 12.6343 19.355 13.3368 19.355C13.8988 19.355 14.0393 19.0038 14.3905 18.3013M22.4687 18.3013C22.8199 19.0038 23.1711 19.7062 24.2248 19.7062C25.0677 19.7062 25.9809 19.355 30.8981 14.4379M21.415 19.0038C21.415 19.7062 22.1174 20.0575 22.1174 20.0575" stroke="black" stroke-width="0.8" stroke-linecap="round"/>
    <path d="M14.5518 34.0809C15.6932 31.0371 17.5955 29.5153 20.2588 30.2762C22.039 30.7848 25.5854 32.6858 27.1073 34.0809" stroke="black" stroke-linecap="round"/>
    <path d="M11.9318 24.6234L12.283 25.3259M23.171 24.6234L23.5223 25.3259" stroke="black" stroke-width="1.5" stroke-linecap="round"/>
    <path d="M2.14824 15.8427C1.86726 14.9997 2.79578 13.0329 3.90438 11.628V12.6816L5.25438 9.87183L4.95805 13.0329L5.6605 11.9792C5.95681 14.4378 5.63406 15.8142 5.25438 16.1939C4.90314 16.5451 4.4702 16.8963 3.90437 16.8963C3.20192 16.8963 2.49946 16.8963 2.14824 15.8427Z" fill="#FF4F29"/>
    <path d="M35.3569 15.9725C35.0122 15.1535 35.7874 13.1214 36.7852 11.6357L36.8659 12.6863L37.9968 9.78137L37.9433 12.9558L38.563 11.8514C39.0467 14.2801 38.8303 15.6773 38.4808 16.0849C38.1575 16.462 37.7527 16.8453 37.1885 16.8886C36.4881 16.9424 35.7877 16.9962 35.3569 15.9725Z" fill="#FF6929"/>
    <path d="M8.59268 11.5557C8.25738 10.8123 8.31555 9.35471 9.88952 6.4977L11.07 4.35494L10.9973 6.17693L12.9793 2.24127L12.484 5.50632L14.4805 1.20625L13.9125 6.2933L14.7285 4.136L14.4813 10.3308C14.4522 11.0596 14.0296 12.5026 13.2862 12.838C12.5429 13.1733 11.4351 13.494 10.3565 13.086C9.27784 12.6779 8.92799 12.299 8.59268 11.5557Z" fill="#FF5C29"/>
</svg>
