<svg width="43" height="60" viewBox="0 0 43 60" fill="none" xmlns="http://www.w3.org/2000/svg">
    <path d="M18.1 54.144V57.04C18.1 57.2053 18.148 57.312 18.244 57.36C18.34 57.408 18.5053 57.432 18.74 57.432C18.9747 57.432 19.18 57.4213 19.356 57.4C19.532 57.3787 19.652 57.3547 19.716 57.328C19.78 57.3013 19.836 57.1947 19.884 57.008C19.9373 56.8213 20.0013 56.3787 20.076 55.68H20.284C20.2787 56.048 20.2867 56.3307 20.308 56.528C20.3293 56.72 20.364 56.8613 20.412 56.952C20.46 57.0427 20.5293 57.1227 20.62 57.192C20.7107 57.2613 20.756 57.3173 20.756 57.36C20.756 57.4027 20.7187 57.4827 20.644 57.6C20.5693 57.7173 20.4867 57.8133 20.396 57.888C20.3107 57.9627 20.1213 58.0107 19.828 58.032C19.5347 58.0533 19.2493 58.064 18.972 58.064C18.5293 58.064 18.1827 58.0453 17.932 58.008C17.6813 57.976 17.532 57.912 17.484 57.816C17.436 57.7253 17.412 57.5253 17.412 57.216V54.144H17.004C16.8867 54.9867 16.708 55.6453 16.468 56.12C16.228 56.5893 15.8973 56.9733 15.476 57.272C15.06 57.576 14.4307 57.9307 13.588 58.336L13.532 58.192C14.668 57.4453 15.3933 56.7973 15.708 56.248C16.028 55.6933 16.2227 54.992 16.292 54.144H14.036C13.892 54.144 13.78 54.1627 13.7 54.2L13.556 53.824C13.668 53.8507 13.8013 53.864 13.956 53.864H16.316C16.364 53.352 16.388 52.752 16.388 52.064H14.628C14.484 52.064 14.372 52.0827 14.292 52.12L14.132 51.768C14.244 51.7947 14.3773 51.808 14.532 51.808H18.78L19.172 51.32C19.2253 51.256 19.268 51.224 19.3 51.224C19.332 51.224 19.3693 51.2427 19.412 51.28C19.46 51.3173 19.556 51.4107 19.7 51.56C19.844 51.704 19.9427 51.8107 19.996 51.88C20.0547 51.944 20.084 51.992 20.084 52.024C20.084 52.0507 19.9987 52.064 19.828 52.064H17.188C17.156 52.7413 17.108 53.3413 17.044 53.864H19.324L19.7 53.376C19.7533 53.3067 19.8067 53.272 19.86 53.272C19.9187 53.272 20.068 53.3973 20.308 53.648C20.548 53.8987 20.668 54.0453 20.668 54.088C20.668 54.1253 20.6067 54.144 20.484 54.144H18.1ZM28.452 52.32H25.748C25.7373 53.3067 25.6947 53.984 25.62 54.352C25.5507 54.7147 25.412 55.0587 25.204 55.384C24.996 55.7093 24.652 56.0693 24.172 56.464L24.068 56.336C24.4787 55.888 24.7507 55.4453 24.884 55.008C25.0173 54.5653 25.084 53.9467 25.084 53.152C25.084 52.7467 25.0653 52.28 25.028 51.752C25.284 51.8213 25.556 51.928 25.844 52.072H28.428C28.38 51.6027 28.332 51.2 28.284 50.864C28.5133 50.9013 28.7133 50.944 28.884 50.992C29.0547 51.0347 29.1533 51.0667 29.18 51.088C29.212 51.104 29.228 51.1227 29.228 51.144C29.228 51.1973 29.1587 51.2613 29.02 51.336C29.0147 51.5653 29.02 51.8107 29.036 52.072H30.364L30.708 51.68C30.7507 51.632 30.7907 51.608 30.828 51.608C30.8653 51.608 30.9773 51.7093 31.164 51.912C31.356 52.1093 31.452 52.2267 31.452 52.264C31.452 52.3013 31.4067 52.32 31.316 52.32H29.052C29.1107 52.9973 29.26 53.5867 29.5 54.088C29.6867 53.7147 29.86 53.2827 30.02 52.792C30.148 52.8293 30.3133 52.8987 30.516 53C30.724 53.096 30.828 53.1627 30.828 53.2C30.828 53.232 30.7933 53.256 30.724 53.272C30.6547 53.288 30.5987 53.3253 30.556 53.384C30.5133 53.4373 30.4307 53.584 30.308 53.824C30.1907 54.064 30.0227 54.3253 29.804 54.608C29.9053 54.752 30.0413 54.8987 30.212 55.048C30.3827 55.1973 30.4973 55.272 30.556 55.272C30.62 55.272 30.6653 55.248 30.692 55.2C30.724 55.1467 30.7667 55.032 30.82 54.856C30.8733 54.68 30.9427 54.408 31.028 54.04L31.188 54.072C31.1507 54.3653 31.132 54.6213 31.132 54.84C31.132 55.2933 31.2173 55.6293 31.388 55.848C31.4573 55.9387 31.492 56.016 31.492 56.08C31.492 56.1387 31.4333 56.168 31.316 56.168C31.076 56.168 30.772 56.0853 30.404 55.92C30.036 55.7493 29.7027 55.4693 29.404 55.08C28.9667 55.5387 28.5347 55.8747 28.108 56.088C28.3107 56.2373 28.412 56.3867 28.412 56.536C28.412 56.68 28.3827 56.8107 28.324 56.928C28.2653 57.04 28.1747 57.096 28.052 57.096C28.0147 57.096 27.988 57.0853 27.972 57.064C27.956 57.048 27.9347 57 27.908 56.92C27.8813 56.8347 27.812 56.6773 27.7 56.448C27.588 56.2187 27.476 56.0133 27.364 55.832L27.476 55.696C27.668 55.7973 27.836 55.8987 27.98 56C28.4867 55.52 28.876 55.08 29.148 54.68C28.956 54.3547 28.8093 54.0267 28.708 53.696C28.612 53.3653 28.5267 52.9067 28.452 52.32ZM29.428 50.96C29.7587 51.04 29.98 51.12 30.092 51.2C30.204 51.2747 30.26 51.3733 30.26 51.496C30.26 51.6133 30.2333 51.7227 30.18 51.824C30.1267 51.92 30.0627 51.968 29.988 51.968C29.9187 51.968 29.8547 51.8987 29.796 51.76C29.6573 51.4187 29.508 51.1867 29.348 51.064L29.428 50.96ZM27.412 52.976L27.668 52.664C27.7053 52.616 27.7427 52.592 27.78 52.592C27.8227 52.592 27.9347 52.6773 28.116 52.848C28.2973 53.0133 28.388 53.1147 28.388 53.152C28.388 53.1893 28.348 53.208 28.268 53.208H26.268C26.124 53.208 26.012 53.2267 25.932 53.264L25.788 52.936C25.9 52.9627 26.0333 52.976 26.188 52.976H27.412ZM27.548 55.248H26.628V55.424C26.628 55.472 26.6093 55.5093 26.572 55.536C26.5347 55.5573 26.4547 55.5867 26.332 55.624C26.2147 55.656 26.132 55.672 26.084 55.672C26.0413 55.672 26.0227 55.64 26.028 55.576C26.0493 55.336 26.06 55.0773 26.06 54.8V54.248C26.06 54.024 26.052 53.7973 26.036 53.568C26.34 53.6693 26.564 53.7547 26.708 53.824H27.548L27.684 53.616C27.7053 53.5787 27.732 53.56 27.764 53.56C27.796 53.56 27.9107 53.6213 28.108 53.744C28.3053 53.8613 28.404 53.9387 28.404 53.976C28.404 54.0133 28.316 54.0773 28.14 54.168V54.592C28.14 54.8213 28.1427 54.976 28.148 55.056L28.164 55.288C28.164 55.3147 28.1533 55.336 28.132 55.352C28.116 55.3627 28.0413 55.3867 27.908 55.424C27.7747 55.456 27.6707 55.472 27.596 55.472C27.564 55.472 27.548 55.448 27.548 55.4V55.248ZM26.628 54.976H27.548V54.072H26.628V54.976ZM29.404 56.128C29.404 56.512 29.4253 56.8107 29.468 57.024C29.516 57.2427 29.6013 57.3867 29.724 57.456C29.7933 57.4987 29.828 57.5387 29.828 57.576C29.828 57.6187 29.78 57.7067 29.684 57.84C29.588 57.9733 29.4467 58.064 29.26 58.112C29.0733 58.1653 28.7027 58.192 28.148 58.192C27.5987 58.192 27.2013 58.1707 26.956 58.128C26.7107 58.0853 26.5507 58.0107 26.476 57.904C26.4013 57.8027 26.364 57.6187 26.364 57.352V56.608C26.364 56.3893 26.356 56.1707 26.34 55.952C26.7133 56.016 26.9507 56.0667 27.052 56.104C27.1587 56.136 27.212 56.1733 27.212 56.216C27.212 56.2587 27.1453 56.3013 27.012 56.344V57.176C27.012 57.3093 27.0173 57.4027 27.028 57.456C27.044 57.5093 27.0707 57.544 27.108 57.56C27.1507 57.5813 27.2867 57.5947 27.516 57.6C27.7453 57.6053 27.94 57.608 28.1 57.608C28.548 57.608 28.8253 57.5733 28.932 57.504C29.044 57.4347 29.1427 56.9733 29.228 56.12L29.404 56.128ZM25.748 56.04C25.78 56.2747 25.796 56.4907 25.796 56.688C25.796 57.0773 25.7373 57.3893 25.62 57.624C25.5027 57.864 25.3453 57.984 25.148 57.984C25.02 57.984 24.908 57.9467 24.812 57.872C24.716 57.8027 24.668 57.7093 24.668 57.592C24.668 57.5067 24.756 57.4053 24.932 57.288C25.1347 57.1547 25.276 57.0107 25.356 56.856C25.436 56.696 25.5027 56.424 25.556 56.04H25.748ZM29.884 56.096C30.3907 56.4107 30.7267 56.6453 30.892 56.8C31.0627 56.9547 31.148 57.096 31.148 57.224C31.148 57.352 31.108 57.4933 31.028 57.648C30.948 57.808 30.8573 57.888 30.756 57.888C30.692 57.888 30.6387 57.8667 30.596 57.824C30.5587 57.7867 30.4973 57.656 30.412 57.432C30.3267 57.208 30.236 57.0053 30.14 56.824C30.0493 56.6373 29.9267 56.4347 29.772 56.216L29.884 56.096Z" fill="#4E4E4E"/>
    <path d="M0.0475414 22.2581C-0.459572 13.235 3.09025 4.71299 10.6969 1.70529C14.4178 0.234042 26.0112 -1.25249 31.9957 1.70535C36.0526 3.71049 42.1379 5.71573 42.645 22.2581C43.1521 38.8004 30.9814 40.8055 17.2894 40.8055C3.59733 40.8055 0.554655 31.2812 0.0475414 22.2581Z" fill="#E4D78E"/>
    <path d="M18.548 30.6041C19.2899 30.6041 20.0318 30.6041 20.4028 30.6041C20.9274 30.6041 21.5156 30.6041 22.2576 30.6041" stroke="black" stroke-linecap="round"/>
    <path d="M11.1288 18.548V20.4028M29.6768 18.548V20.4028" stroke="black" stroke-linecap="round"/>
</svg>
