<svg width="46" height="59" viewBox="0 0 46 59" fill="none" xmlns="http://www.w3.org/2000/svg">
    <path d="M17.26 52.488C17.8627 51.5813 18.2387 50.912 18.388 50.48C18.7507 50.6933 18.98 50.84 19.076 50.92C19.1773 50.9947 19.228 51.048 19.228 51.08C19.228 51.1067 19.2147 51.1253 19.188 51.136C19.1667 51.1467 19.14 51.1493 19.108 51.144C19.0813 51.1387 19.0573 51.136 19.036 51.136C18.9667 51.136 18.8893 51.1867 18.804 51.288C18.4307 51.72 17.9267 52.1973 17.292 52.72H18.332L18.692 52.288C18.7453 52.224 18.7907 52.192 18.828 52.192C18.8973 52.192 19.0493 52.2987 19.284 52.512C19.524 52.72 19.644 52.8533 19.644 52.912C19.644 52.944 19.5853 52.96 19.468 52.96L17.26 52.952V53.512C18.1027 53.8747 18.676 54.168 18.98 54.392C19.2893 54.616 19.444 54.8373 19.444 55.056C19.444 55.184 19.4093 55.3227 19.34 55.472C19.2707 55.6213 19.196 55.696 19.116 55.696C19.0413 55.696 18.98 55.6747 18.932 55.632C18.8893 55.5893 18.8387 55.5147 18.78 55.408C18.5773 55.0347 18.3533 54.7173 18.108 54.456C17.868 54.1947 17.5853 53.9307 17.26 53.664V55.936C17.26 56.0053 17.236 56.056 17.188 56.088C17.1453 56.1253 17.06 56.168 16.932 56.216C16.804 56.264 16.7027 56.288 16.628 56.288C16.5907 56.288 16.572 56.2533 16.572 56.184L16.588 55.856C16.5933 55.632 16.596 55.3893 16.596 55.128V53.8C16.2227 54.4507 15.5507 55.096 14.58 55.736L14.508 55.632C15.356 54.7787 15.9613 53.8853 16.324 52.952H15.212C15.0733 52.952 14.9587 52.9653 14.868 52.992L14.732 52.68C14.844 52.7067 14.9773 52.72 15.132 52.72H16.596V50.944C16.596 50.592 16.588 50.288 16.572 50.032C16.7213 50.0587 16.9187 50.1093 17.164 50.184C17.4147 50.2587 17.54 50.3227 17.54 50.376C17.54 50.424 17.4467 50.4933 17.26 50.584V52.488ZM13.052 50.264C13.9213 50.776 14.356 51.208 14.356 51.56C14.356 51.6933 14.3027 51.8293 14.196 51.968C14.0893 52.1067 13.9667 52.176 13.828 52.176C13.6947 52.176 13.6173 52.0853 13.596 51.904C13.5533 51.536 13.484 51.248 13.388 51.04C13.2973 50.8267 13.1587 50.6107 12.972 50.392L13.052 50.264ZM15.1 50.528C15.452 50.8 15.7293 51.04 15.932 51.248C16.14 51.456 16.244 51.6293 16.244 51.768C16.244 51.9067 16.196 52.056 16.1 52.216C16.004 52.376 15.9 52.456 15.788 52.456C15.692 52.456 15.6307 52.384 15.604 52.24C15.524 51.8293 15.4493 51.5307 15.38 51.344C15.3107 51.1573 15.1773 50.9147 14.98 50.616L15.1 50.528ZM13.62 55.624V53.432H12.828C12.684 53.432 12.572 53.4507 12.492 53.488L12.348 53.16C12.46 53.1867 12.5933 53.2 12.748 53.2H13.5L13.748 52.824C13.78 52.7707 13.8093 52.744 13.836 52.744C13.884 52.744 14.0227 52.8293 14.252 53C14.4867 53.1707 14.604 53.2773 14.604 53.32C14.604 53.3733 14.5027 53.4373 14.3 53.512V55.688C14.4867 55.88 14.6627 56.0293 14.828 56.136C14.9933 56.2427 15.2787 56.3173 15.684 56.36C16.0947 56.4027 16.5453 56.424 17.036 56.424C17.5267 56.424 18.5133 56.376 19.996 56.28L20.012 56.408C19.6813 56.4827 19.46 56.5627 19.348 56.648C19.236 56.7333 19.1747 56.856 19.164 57.016C19.164 57.0747 19.1133 57.104 19.012 57.104C18.836 57.104 18.4253 57.0907 17.78 57.064C17.14 57.0427 16.668 57.0213 16.364 57C16.0653 56.984 15.828 56.9653 15.652 56.944C15.476 56.9227 15.3213 56.8853 15.188 56.832C15.06 56.784 14.9347 56.7093 14.812 56.608C14.6893 56.512 14.5347 56.3653 14.348 56.168C14.1667 55.976 14.0387 55.88 13.964 55.88C13.8947 55.88 13.8227 55.9253 13.748 56.016L13.372 56.456C13.1907 56.6587 13.0413 56.8827 12.924 57.128C12.9027 57.1813 12.876 57.208 12.844 57.208C12.8173 57.208 12.7773 57.168 12.724 57.088C12.6707 57.008 12.5533 56.784 12.372 56.416C12.9533 56 13.3693 55.736 13.62 55.624ZM28.292 50.984H29.26L29.572 50.56C29.6253 50.4853 29.6813 50.448 29.74 50.448C29.804 50.448 29.884 50.4853 29.98 50.56C30.0813 50.6293 30.188 50.712 30.3 50.808C30.4173 50.904 30.5 50.9787 30.548 51.032C30.596 51.08 30.62 51.1253 30.62 51.168C30.62 51.2053 30.5693 51.224 30.468 51.224H28.292C28.292 51.4373 28.2947 51.5973 28.3 51.704C28.3107 51.8107 28.316 51.8773 28.316 51.904C28.316 51.9307 28.2947 51.9573 28.252 51.984C28.2093 52.0053 28.1213 52.032 27.988 52.064C27.86 52.096 27.7533 52.112 27.668 52.112C27.6253 52.112 27.604 52.0773 27.604 52.008V51.224H26.172V51.912C26.172 51.9653 26.1507 52.0053 26.108 52.032C26.0707 52.0587 25.9773 52.096 25.828 52.144C25.6787 52.192 25.5773 52.216 25.524 52.216C25.492 52.216 25.476 52.184 25.476 52.12L25.5 51.224H23.708C23.5693 51.224 23.4573 51.24 23.372 51.272L23.18 50.944C23.292 50.9707 23.4253 50.984 23.58 50.984H25.5V50.408C25.5 50.232 25.492 50.0373 25.476 49.824C26.1267 49.9573 26.452 50.0667 26.452 50.152C26.452 50.2 26.3587 50.2747 26.172 50.376V50.984H27.604V50.464C27.604 50.288 27.596 50.0933 27.58 49.88C28.0227 49.9813 28.2973 50.0533 28.404 50.096C28.5107 50.1387 28.564 50.176 28.564 50.208C28.564 50.2507 28.4733 50.3227 28.292 50.424V50.984ZM23.924 51.816C24.3667 51.9333 24.7133 52.056 24.964 52.184C25.22 52.312 25.348 52.4667 25.348 52.648C25.348 52.776 25.3053 52.904 25.22 53.032C25.14 53.1547 25.0547 53.216 24.964 53.216C24.916 53.216 24.876 53.2 24.844 53.168C24.812 53.136 24.756 53.0347 24.676 52.864C24.6013 52.6933 24.508 52.544 24.396 52.416C24.2893 52.2827 24.116 52.1227 23.876 51.936L23.924 51.816ZM27.14 52.048C27.6787 52.192 28.044 52.32 28.236 52.432C28.4333 52.544 28.532 52.672 28.532 52.816C28.532 52.9547 28.492 53.0747 28.412 53.176C28.3373 53.272 28.2547 53.32 28.164 53.32C28.1 53.32 28.012 53.2213 27.9 53.024C27.7293 52.72 27.4547 52.44 27.076 52.184L27.14 52.048ZM27.212 53.696V56.544H29.156L29.516 56.096C29.5587 56.0427 29.596 56.016 29.628 56.016C29.6813 56.016 29.8173 56.12 30.036 56.328C30.26 56.5413 30.372 56.672 30.372 56.72C30.372 56.768 30.3107 56.792 30.188 56.792H27.308L27.132 57.096C27.1 57.1547 27.0627 57.184 27.02 57.184C26.9827 57.184 26.8627 57.1387 26.66 57.048C26.4573 56.9573 26.3 56.8667 26.188 56.776C26.348 56.6107 26.4467 56.496 26.484 56.432C26.5267 56.3733 26.548 56.304 26.548 56.224V53.696H25.74L25.388 54.52C25.2173 54.92 25.1027 55.2267 25.044 55.44C24.9853 55.648 24.956 55.824 24.956 55.968C24.956 56.112 24.9613 56.248 24.972 56.376C24.988 56.5093 24.996 56.6453 24.996 56.784C24.996 56.9227 24.972 57.032 24.924 57.112C24.876 57.192 24.7827 57.232 24.644 57.232C24.5053 57.232 24.38 57.1787 24.268 57.072C24.1613 56.9653 24.108 56.84 24.108 56.696C24.108 56.6533 24.1133 56.6133 24.124 56.576C24.2307 56.064 24.284 55.752 24.284 55.64C24.284 55.528 24.2547 55.4427 24.196 55.384C24.1427 55.3253 24.0467 55.2693 23.908 55.216C23.7747 55.1627 23.5933 55.1067 23.364 55.048L23.38 54.904C23.588 54.92 23.7907 54.928 23.988 54.928C24.1853 54.928 24.3587 54.904 24.508 54.856C24.6627 54.8027 24.78 54.7067 24.86 54.568L26.164 52.36L26.3 52.4L25.844 53.448H29.18L29.5 53.024C29.548 52.96 29.588 52.928 29.62 52.928C29.668 52.928 29.8067 53.032 30.036 53.24C30.2707 53.4427 30.388 53.5733 30.388 53.632C30.388 53.6747 30.3213 53.696 30.188 53.696H27.212ZM23.38 53.144C23.9293 53.2667 24.292 53.3733 24.468 53.464C24.6493 53.5547 24.74 53.672 24.74 53.816C24.74 53.9547 24.7 54.0853 24.62 54.208C24.5453 54.3253 24.4707 54.384 24.396 54.384C24.3267 54.384 24.2733 54.36 24.236 54.312C24.1987 54.264 24.14 54.1653 24.06 54.016C23.98 53.8667 23.8973 53.7467 23.812 53.656C23.732 53.56 23.5827 53.4347 23.364 53.28L23.38 53.144Z" fill="#4E4E4E"/>
    <path d="M0.1817 26.3008C-0.537812 22.2953 0.861985 14.1896 4.69506 9.55102C9.2084 4.08919 14.4741 -0.696443 25.7575 0.0837995C34.4081 0.681986 42.2229 7.36629 43.811 14.2847C46.0676 24.1161 47.9482 31.0344 41.9304 37.2246C37.1355 42.1568 20.218 43.0986 12.9696 40.8659C4.69506 38.317 1.68609 34.6757 0.1817 26.3008Z" fill="#6E97C7"/>
    <path d="M11.7835 18.1128C11.2523 17.8441 10.9799 17.4492 11.1452 16.8214C11.3106 16.1937 11.7835 15.8529 12.4217 15.8529C12.8397 15.8529 13.1773 16.0902 13.3791 16.4986C13.581 16.907 13.4485 17.5748 13.1293 17.8976C12.8102 18.2205 12.236 18.3417 11.7835 18.1128Z" fill="#5A7FAA"/>
    <path d="M30.807 18.1128C30.2759 17.8441 30.0034 17.4492 30.1688 16.8214C30.3341 16.1937 30.807 15.8529 31.4453 15.8529C31.8632 15.8529 32.2009 16.0902 32.4027 16.4986C32.6045 16.907 32.472 17.5748 32.1529 17.8976C31.8338 18.2205 31.2596 18.3417 30.807 18.1128Z" fill="#5A7FAA"/>
    <path d="M18.57 26.1574C19.2099 26.761 20.6089 26.5537 22.1966 26.5537C23.7843 26.5537 24.9835 26.4971 25.7038 26.1574C27.1444 25.4779 25.4379 23.7794 22.1966 23.7794C19.2929 23.7794 17.431 25.0831 18.57 26.1574Z" stroke="black" stroke-width="0.5"/>
    <circle cx="12.6824" cy="16.6456" r="0.792648" fill="black"/>
    <circle cx="30.9133" cy="16.6456" r="0.792648" fill="black"/>
</svg>
