<svg width="44" height="59" viewBox="0 0 44 59" fill="none" xmlns="http://www.w3.org/2000/svg">
    <path d="M16.212 50.08C16.7133 50.528 17.0893 50.9627 17.34 51.384C17.5907 51.8053 17.716 52.1787 17.716 52.504C17.716 52.712 17.66 52.888 17.548 53.032C17.4413 53.1707 17.3107 53.24 17.156 53.24C17.06 53.24 16.996 53.0747 16.964 52.744C16.868 51.7413 16.572 50.8827 16.076 50.168L16.212 50.08ZM18.42 53.608H19.484L19.844 53.168C19.9187 53.0773 19.9907 53.032 20.06 53.032C20.1347 53.032 20.2893 53.1493 20.524 53.384C20.7587 53.6133 20.876 53.752 20.876 53.8C20.876 53.848 20.8093 53.872 20.676 53.872H13.804C13.66 53.872 13.548 53.8907 13.468 53.928L13.324 53.568C13.436 53.5947 13.5693 53.608 13.724 53.608H18.084C18.6227 52.424 18.9853 51.304 19.172 50.248C19.4227 50.3173 19.6413 50.3973 19.828 50.488C20.02 50.5733 20.1293 50.6293 20.156 50.656C20.1827 50.6773 20.196 50.704 20.196 50.736C20.196 50.768 20.164 50.7973 20.1 50.824C20.0413 50.8507 19.988 50.888 19.94 50.936C19.8973 50.984 19.844 51.0693 19.78 51.192C19.284 52.1467 18.8307 52.952 18.42 53.608ZM14.3 50.824C15.3933 51.6507 15.94 52.36 15.94 52.952C15.94 53.144 15.8973 53.2933 15.812 53.4C15.732 53.5013 15.636 53.552 15.524 53.552C15.412 53.552 15.3267 53.4187 15.268 53.152C15.14 52.5653 14.996 52.1307 14.836 51.848C14.6813 51.5653 14.4627 51.2533 14.18 50.912L14.3 50.824ZM15.94 54.032C16.3027 54.1867 16.5507 54.3093 16.684 54.4C16.8173 54.4907 16.884 54.5547 16.884 54.592C16.884 54.64 16.8387 54.672 16.748 54.688C16.6573 54.704 16.5827 54.728 16.524 54.76C16.4653 54.792 16.3933 54.8533 16.308 54.944C15.38 55.9307 14.444 56.7147 13.5 57.296L13.388 57.168C14.5027 56.1813 15.3533 55.136 15.94 54.032ZM17.556 54.248C18.2707 54.712 18.812 55.0853 19.18 55.368C19.5533 55.6507 19.8067 55.8827 19.94 56.064C20.0787 56.2453 20.148 56.4187 20.148 56.584C20.148 56.7547 20.108 56.912 20.028 57.056C19.9533 57.2 19.844 57.272 19.7 57.272C19.652 57.272 19.6093 57.2533 19.572 57.216C19.5347 57.184 19.4787 57.1013 19.404 56.968C19.0733 56.4027 18.764 55.9413 18.476 55.584C18.188 55.2267 17.8307 54.8213 17.404 54.368L17.556 54.248ZM29.996 53.712V56.496C29.996 56.576 29.9987 56.6507 30.004 56.72L30.02 56.888C30.02 56.92 29.9907 56.9547 29.932 56.992C29.8733 57.0347 29.7773 57.0773 29.644 57.12C29.516 57.1627 29.412 57.184 29.332 57.184C29.2893 57.184 29.268 57.1547 29.268 57.096V56.472H26.284V56.904C26.284 56.9733 26.2627 57.0213 26.22 57.048C26.1827 57.0747 26.084 57.1093 25.924 57.152C25.7693 57.2 25.6573 57.224 25.588 57.224C25.5507 57.224 25.5347 57.1973 25.54 57.144C25.5667 56.888 25.58 56.632 25.58 56.376V53.712C25.1427 54.048 24.6387 54.368 24.068 54.672L24.004 54.512C25.2573 53.6587 26.164 52.6747 26.724 51.56H24.676C24.564 51.56 24.4493 51.576 24.332 51.608L24.196 51.264C24.308 51.2907 24.4413 51.304 24.596 51.304H26.844C27.068 50.8133 27.2173 50.32 27.292 49.824C27.5427 49.888 27.764 49.9547 27.956 50.024C28.1533 50.0933 28.2707 50.1413 28.308 50.168C28.3507 50.1947 28.372 50.2187 28.372 50.24C28.372 50.2827 28.3293 50.3173 28.244 50.344C28.1587 50.3707 28.1 50.4027 28.068 50.44C28.0413 50.472 27.996 50.5627 27.932 50.712C27.8733 50.8613 27.78 51.0587 27.652 51.304H29.996L30.404 50.8C30.4413 50.752 30.484 50.728 30.532 50.728C30.5853 50.728 30.6787 50.7947 30.812 50.928L31.196 51.28C31.308 51.3867 31.364 51.4613 31.364 51.504C31.364 51.5413 31.3133 51.56 31.212 51.56H28.484C28.7133 51.9973 29.14 52.4133 29.764 52.808C30.388 53.1973 31.0173 53.4293 31.652 53.504V53.704C31.3533 53.6987 31.148 53.7227 31.036 53.776C30.9293 53.824 30.844 53.912 30.78 54.04C30.7533 54.0933 30.7213 54.12 30.684 54.12C30.62 54.12 30.3907 53.984 29.996 53.712ZM26.324 53.544H29.188L29.444 53.288C28.8307 52.7653 28.4067 52.1893 28.172 51.56H27.508C27.0813 52.2747 26.5453 52.904 25.9 53.448C26.1027 53.432 26.244 53.464 26.324 53.544ZM27.428 54.832V53.808H26.284V54.832H27.428ZM28.1 53.808V54.832H29.268V53.808H28.1ZM27.428 56.2V55.096H26.284V56.2H27.428ZM28.1 55.096V56.2H29.268V55.096H28.1Z" fill="#4E4E4E"/>
    <path d="M0.801238 27.6458C-0.319906 22.937 -0.992603 18.6766 3.94046 10.3802C5.46875 7.80986 9.86604 3.03148 12.781 1.91028C15.6961 0.789089 21.7502 -1.22891 29.1498 1.01339C36.4585 3.22817 40.4173 7.51605 41.7066 12.6733C43.3323 19.176 43.9488 24.3331 42.8277 28.8177C41.6741 33.4323 39.0158 35.7688 33.1859 38.2353C27.3559 40.7018 20.1277 40.7294 14.255 39.3057C6.8554 37.5119 1.92238 32.3546 0.801238 27.6458Z" fill="#FFB656"/>
    <path d="M11.6599 17.4899V19.7322M28.7563 17.4899V19.5283" stroke="black" stroke-width="2" stroke-linecap="round"/>
    <path d="M10.7836 17.6133C11.2457 17.5683 11.3998 17.0292 11.5025 16.5349C11.6052 17.0292 11.7592 17.5683 12.2214 17.6133C11.7592 17.6582 11.6052 18.1974 11.5025 18.6916C11.3998 18.1974 11.2457 17.6582 10.7836 17.6133Z" fill="#FFD231"/>
    <path d="M28.0373 17.6133C28.4994 17.5683 28.6535 17.0292 28.7562 16.5349C28.8589 17.0292 29.013 17.5683 29.4751 17.6133C29.013 17.6582 28.8589 18.1974 28.7562 18.6916C28.6535 18.1974 28.4994 17.6582 28.0373 17.6133Z" fill="#FFD231"/>
    <path d="M23.6712 24.0659C22.4877 25.2495 18.937 25.2495 17.7534 24.0659C15.3863 27.2221 17.9469 29.553 21.9118 29.553C25.8767 29.553 27.6165 25.644 23.6712 24.0659Z" stroke="black" stroke-width="0.7" stroke-linejoin="round"/>
    <path d="M4.03619 23.5439L4.70888 25.1135M6.05425 23.5439L6.72694 24.6651M8.07231 23.5439L8.96923 24.6651M29.8225 23.9924L30.7194 25.562M32.7375 23.9924L34.0829 25.562M35.6525 23.9924L37.2221 25.562" stroke="#9A5606" stroke-linecap="round" stroke-linejoin="round"/>
    <path d="M11.8841 8.96899C10.8078 8.25146 8.52063 8.96902 7.62372 10.0902M27.8043 9.19327C29.1497 8.29631 30.9435 8.96902 32.0647 10.3144" stroke="black" stroke-linecap="round" stroke-linejoin="round"/>
</svg>
