<svg width="42" height="59" viewBox="0 0 42 59" fill="none" xmlns="http://www.w3.org/2000/svg">
    <path d="M14.38 53.52C14.348 54.5973 14.1453 55.384 13.772 55.88C13.404 56.376 12.7 56.8747 11.66 57.376L11.58 57.24C12.316 56.76 12.844 56.2427 13.164 55.688C13.4893 55.128 13.66 54.4053 13.676 53.52H11.932C11.788 53.52 11.676 53.5387 11.596 53.576L11.452 53.224C11.564 53.2507 11.6973 53.264 11.852 53.264H13.684C13.6947 52.8107 13.7 52.4107 13.7 52.064C13.7 51.712 13.684 51.3467 13.652 50.968H12.444C12.3 50.968 12.188 50.9867 12.108 51.024L11.964 50.672C12.076 50.6987 12.2093 50.712 12.364 50.712H17.284L17.644 50.216C17.6813 50.168 17.7107 50.144 17.732 50.144C17.7853 50.144 17.9267 50.256 18.156 50.48C18.3907 50.704 18.508 50.8427 18.508 50.896C18.508 50.944 18.4467 50.968 18.324 50.968H16.82V53.264H17.58L17.988 52.728C18.0253 52.68 18.0573 52.656 18.084 52.656C18.1373 52.656 18.2813 52.776 18.516 53.016C18.756 53.256 18.876 53.4 18.876 53.448C18.876 53.496 18.8147 53.52 18.692 53.52H16.82V56.096C16.82 56.352 16.8227 56.528 16.828 56.624L16.836 56.904C16.836 56.968 16.8067 57.0187 16.748 57.056C16.6947 57.0933 16.5933 57.1413 16.444 57.2C16.2947 57.2587 16.196 57.288 16.148 57.288C16.116 57.288 16.1 57.2427 16.1 57.152V53.52H14.38ZM14.412 50.968C14.4173 51.3467 14.42 51.7173 14.42 52.08C14.42 52.4427 14.412 52.8373 14.396 53.264H16.1V50.968H14.412ZM25.364 50.176C26.3987 50.816 26.916 51.344 26.916 51.76C26.916 51.936 26.868 52.1013 26.772 52.256C26.676 52.4107 26.572 52.488 26.46 52.488C26.396 52.488 26.3293 52.456 26.26 52.392C26.196 52.3227 26.156 52.2427 26.14 52.152C26.0813 51.8267 25.9773 51.5253 25.828 51.248C25.6787 50.9653 25.4867 50.6613 25.252 50.336L25.364 50.176ZM27.708 54.448C27.724 54.8693 27.7507 55.1893 27.788 55.408C27.8253 55.6213 27.876 55.776 27.94 55.872C28.0093 55.9627 28.108 56.0427 28.236 56.112C28.3267 56.16 28.372 56.2027 28.372 56.24C28.372 56.2773 28.324 56.3733 28.228 56.528C28.132 56.688 28.0227 56.7973 27.9 56.856C27.7827 56.92 27.6333 56.96 27.452 56.976C27.276 56.992 26.924 57 26.396 57C25.8733 57 25.5053 56.992 25.292 56.976C25.0787 56.96 24.9053 56.928 24.772 56.88C24.6387 56.832 24.5533 56.7573 24.516 56.656C24.484 56.5547 24.468 56.376 24.468 56.12V52.824C24.468 52.6053 24.46 52.3867 24.444 52.168C24.7 52.2267 24.9427 52.2987 25.172 52.384C25.4013 52.4693 25.516 52.5413 25.516 52.6C25.516 52.6533 25.4013 52.712 25.172 52.776V55.864C25.172 56.0187 25.1853 56.12 25.212 56.168C25.244 56.216 25.2813 56.2453 25.324 56.256C25.3667 56.2667 25.5053 56.2773 25.74 56.288C25.9747 56.304 26.1693 56.312 26.324 56.312C26.82 56.312 27.116 56.256 27.212 56.144C27.308 56.0373 27.4067 55.472 27.508 54.448H27.708ZM27.788 52.784C28.9187 53.4667 29.484 54.0533 29.484 54.544C29.484 54.7093 29.4253 54.88 29.308 55.056C29.1907 55.232 29.0813 55.32 28.98 55.32C28.8253 55.32 28.7267 55.1947 28.684 54.944C28.5453 54.1813 28.2067 53.512 27.668 52.936L27.788 52.784ZM23.692 53.12C23.772 53.5467 23.812 53.912 23.812 54.216C23.812 54.7067 23.7133 55.0613 23.516 55.28C23.3187 55.4933 23.1213 55.6 22.924 55.6C22.812 55.6 22.7107 55.56 22.62 55.48C22.5293 55.3947 22.484 55.3093 22.484 55.224C22.484 55.1387 22.548 55.0373 22.676 54.92C22.9853 54.632 23.1907 54.3547 23.292 54.088C23.3933 53.816 23.4627 53.4933 23.5 53.12H23.692Z" fill="#4E4E4E"/>
    <path d="M22.6477 42.0104C9.70525 42.0104 0 41.6134 0 26.1317C-3.23976e-05 10.65 6.17687 1.98609 16.9013 0.328908C29.7462 -1.65595 40.563 5.48946 41.2391 17.7954C41.9151 30.1014 34.8166 42.0104 22.6477 42.0104Z" fill="#E9D17E"/>
    <path d="M11.8499 28.139C12.6144 30.517 16.0546 32.1023 18.3482 32.1023C22.2751 32.1023 24.082 30.517 25.2287 28.139" stroke="black" stroke-linecap="round"/>
    <path d="M9.9386 16.6456V20.6089" stroke="black" stroke-width="2" stroke-linecap="round"/>
    <path d="M23.6997 16.6456V20.6089" stroke="black" stroke-width="2" stroke-linecap="round"/>
</svg>
