<svg width="56" height="52" viewBox="0 0 56 52" fill="none" xmlns="http://www.w3.org/2000/svg">
    <path d="M33.8256 51.3762C18.4734 51.3762 15.2267 50.4793 5.3244 37.8764C-0.175583 30.8764 -4.17558 17.3766 7.82441 6.3764C11.4645 3.03955 27.8244 -2.62378 39.3244 1.37614C48.4693 4.55693 54.7401 12.7392 55.3244 23.3762C56.1773 38.9013 49.1778 51.3762 33.8256 51.3762Z" fill="#8C6FBC"/>
    <path d="M24 20C24.1667 20.8333 23 22.5 21 22.5M41.5 20C42.5 21.5 43 22 44.5 22.5" stroke="black" stroke-linecap="round" stroke-linejoin="round"/>
    <path d="M28 40C28 39.5 30.1065 38 33 38C37.9542 38 36 40 35.5 40.5" stroke="black" stroke-linecap="round"/>
    <path d="M25 25V28M43 25.5V28.5" stroke="black" stroke-width="2" stroke-linecap="round" stroke-linejoin="round"/>
    <path d="M19.4625 30C17.7958 30.6667 14.8625 32.1 16.4625 32.5C18.0625 32.9 19.1291 31 19.4625 30Z" stroke="black" stroke-width="0.6" stroke-linecap="round" stroke-linejoin="round"/>
    <path d="M44.5 31.5C46.5 35.5 49.118 34.618 48 33.5C47 32.5 46.5 32.5 44.5 31.5Z" stroke="black" stroke-width="0.6" stroke-linecap="round" stroke-linejoin="round"/>
</svg>
