<svg width="44" height="59" viewBox="0 0 44 59" fill="none" xmlns="http://www.w3.org/2000/svg">
    <path d="M14.0979 54.992L14.3459 55.192C14.1005 55.5067 13.8499 55.736 13.5939 55.88C13.3432 56.024 13.0552 56.096 12.7299 56.096C12.3352 56.096 11.9885 56.008 11.6899 55.832C11.3912 55.656 11.1645 55.408 11.0099 55.088C10.8605 54.768 10.7859 54.4347 10.7859 54.088C10.7859 53.5387 10.9619 53.0773 11.3139 52.704C11.6659 52.3253 12.1272 52.136 12.6979 52.136C13.1885 52.136 13.5779 52.28 13.8659 52.568C14.1592 52.856 14.3112 53.2613 14.3219 53.784H11.5619C11.5565 53.8907 11.5539 53.9893 11.5539 54.08C11.5539 54.56 11.6685 54.9493 11.8979 55.248C12.1272 55.5413 12.4339 55.688 12.8179 55.688C13.0739 55.688 13.3005 55.6267 13.4979 55.504C13.6952 55.376 13.8952 55.2053 14.0979 54.992ZM13.6019 53.416C13.5005 52.808 13.1939 52.504 12.6819 52.504C12.4045 52.504 12.1805 52.5813 12.0099 52.736C11.8445 52.8853 11.7139 53.112 11.6179 53.416H13.6019ZM17.3581 52.792V52.464C17.7101 52.4267 18.0488 52.3173 18.3741 52.136H18.6621V52.792C19.0088 52.52 19.2781 52.344 19.4701 52.264C19.6675 52.1787 19.8728 52.136 20.0861 52.136C20.2995 52.136 20.5048 52.1867 20.7021 52.288C20.9048 52.3893 21.0568 52.5573 21.1581 52.792C21.6488 52.3547 22.1368 52.136 22.6221 52.136C22.9741 52.136 23.2461 52.2347 23.4381 52.432C23.6355 52.6293 23.7341 52.9067 23.7341 53.264V55.08C23.7341 55.32 23.7635 55.48 23.8221 55.56C23.8861 55.6347 24.0381 55.672 24.2781 55.672H24.4061V56H22.4381V55.672C22.7048 55.672 22.8781 55.64 22.9581 55.576C23.0381 55.5067 23.0781 55.3413 23.0781 55.08V53.352C23.0781 53.0853 23.0275 52.896 22.9261 52.784C22.8248 52.6667 22.6595 52.608 22.4301 52.608C22.2381 52.608 22.0275 52.6667 21.7981 52.784C21.5688 52.896 21.3741 53.04 21.2141 53.216V55.08C21.2141 55.3467 21.2488 55.512 21.3181 55.576C21.3928 55.64 21.5715 55.672 21.8541 55.672V56H19.9261V55.672H20.0381C20.2515 55.672 20.3901 55.632 20.4541 55.552C20.5181 55.4667 20.5501 55.3093 20.5501 55.08V53.416C20.5501 53.1333 20.4995 52.928 20.3981 52.8C20.2968 52.672 20.1315 52.608 19.9021 52.608C19.5395 52.608 19.1341 52.8107 18.6861 53.216V55.224C18.6861 55.3893 18.7208 55.5067 18.7901 55.576C18.8648 55.64 18.9955 55.672 19.1821 55.672H19.3261V56H17.3581V55.672H17.4621C17.7128 55.672 17.8701 55.6373 17.9341 55.568C17.9981 55.4933 18.0301 55.3307 18.0301 55.08V52.792H17.3581ZM27.6416 54.12C27.6416 53.5333 27.8202 53.056 28.1776 52.688C28.5349 52.32 29.0042 52.136 29.5856 52.136C30.1562 52.136 30.6149 52.3173 30.9616 52.68C31.3082 53.0427 31.4816 53.52 31.4816 54.112C31.4816 54.7093 31.3056 55.1893 30.9536 55.552C30.6016 55.9147 30.1296 56.096 29.5376 56.096C28.9562 56.096 28.4949 55.912 28.1536 55.544C27.8122 55.176 27.6416 54.7013 27.6416 54.12ZM30.7296 54.104C30.7296 53.6133 30.6256 53.2267 30.4176 52.944C30.2149 52.656 29.9269 52.512 29.5536 52.512C29.2122 52.512 28.9349 52.6613 28.7216 52.96C28.5136 53.2587 28.4096 53.6533 28.4096 54.144C28.4096 54.6507 28.5082 55.0453 28.7056 55.328C28.9082 55.6053 29.1909 55.744 29.5536 55.744C29.9056 55.744 30.1882 55.5973 30.4016 55.304C30.6202 55.0053 30.7296 54.6053 30.7296 54.104Z" fill="#4E4E4E"/>
    <path d="M26.8118 40.7232C14.6429 40.7232 12.0694 40.0123 4.22038 30.0227C-0.139176 24.4741 -3.30977 13.7736 6.20201 5.05424C9.08734 2.4093 22.055 -2.07973 31.1704 1.0908C38.4191 3.61204 43.3896 10.0977 43.8528 18.5291C44.5289 30.8351 38.9807 40.7232 26.8118 40.7232Z" fill="#8C6FBC"/>
    <path d="M19.0236 15.8529C19.1557 16.5134 18.2309 17.8345 16.6456 17.8345M32.8949 15.8529C33.6876 17.0419 34.0839 17.4382 35.2729 17.8345" stroke="black" stroke-linecap="round" stroke-linejoin="round"/>
    <path d="M22.1942 31.7059C22.1942 31.3096 23.8639 30.1206 26.1574 30.1206C30.0843 30.1206 28.5353 31.7059 28.139 32.1022" stroke="black" stroke-linecap="round"/>
    <path d="M19.8162 19.8163V22.1942M34.0838 20.2126V22.5906" stroke="black" stroke-width="2" stroke-linecap="round" stroke-linejoin="round"/>
    <path d="M15.4269 23.7794C14.1058 24.3079 11.7807 25.444 13.049 25.761C14.3172 26.0781 15.1627 24.5721 15.4269 23.7794Z" stroke="black" stroke-width="0.6" stroke-linecap="round" stroke-linejoin="round"/>
    <path d="M35.2729 24.9684C36.8582 28.139 38.9333 27.4399 38.0471 26.5537C37.2545 25.761 36.8582 25.761 35.2729 24.9684Z" stroke="black" stroke-width="0.6" stroke-linecap="round" stroke-linejoin="round"/>
</svg>
