<svg width="43" height="60" viewBox="0 0 43 60" fill="none" xmlns="http://www.w3.org/2000/svg">
    <path d="M16.996 51.96C16.82 51.4693 16.5827 51.1493 16.284 51L16.3 50.864C17.212 50.9333 17.668 51.12 17.668 51.424C17.668 51.5093 17.6307 51.608 17.556 51.72C17.4813 51.8267 17.3853 51.9067 17.268 51.96H19.588L19.868 51.592C19.9053 51.5387 19.9373 51.512 19.964 51.512C19.9907 51.512 20.0413 51.5413 20.116 51.6C20.196 51.6533 20.3107 51.7493 20.46 51.888C20.6147 52.0213 20.7053 52.104 20.732 52.136C20.7587 52.168 20.772 52.2027 20.772 52.24C20.772 52.3147 20.708 52.352 20.58 52.352C20.452 52.352 20.308 52.4 20.148 52.496C19.9933 52.592 19.7667 52.792 19.468 53.096C19.6333 53.24 19.716 53.3333 19.716 53.376C19.716 53.4133 19.6653 53.432 19.564 53.432H17.476V54.144H18.452L18.756 53.768C18.7987 53.7147 18.8333 53.688 18.86 53.688C18.892 53.688 18.9907 53.752 19.156 53.88C19.3213 54.0027 19.4333 54.0933 19.492 54.152C19.5507 54.2107 19.58 54.2587 19.58 54.296C19.58 54.36 19.524 54.392 19.412 54.392H17.476V55.04H19.652L19.948 54.6C19.9907 54.5307 20.036 54.496 20.084 54.496C20.132 54.496 20.2733 54.6 20.508 54.808C20.748 55.016 20.868 55.1467 20.868 55.2C20.868 55.248 20.8227 55.272 20.732 55.272H17.476L17.5 55.64C17.5 55.6773 17.4733 55.712 17.42 55.744C17.3667 55.776 17.2627 55.8187 17.108 55.872C16.9587 55.9253 16.86 55.952 16.812 55.952C16.7693 55.952 16.7533 55.9093 16.764 55.824C16.7853 55.632 16.796 55.448 16.796 55.272H14.1C13.956 55.272 13.844 55.2907 13.764 55.328L13.62 55C13.732 55.0267 13.8653 55.04 14.02 55.04H16.796V54.392H15.404C15.26 54.392 15.148 54.4107 15.068 54.448L14.924 54.104C15.036 54.1307 15.1693 54.144 15.324 54.144H16.796V53.432H15.14C14.996 53.432 14.884 53.4507 14.804 53.488L14.66 53.16C14.772 53.1867 14.9053 53.2 15.06 53.2H16.796C16.796 52.8053 16.788 52.4933 16.772 52.264C16.9373 52.296 17.14 52.3467 17.38 52.416C17.62 52.4853 17.74 52.5413 17.74 52.584C17.74 52.6213 17.652 52.6747 17.476 52.744V53.2H18.596L18.9 52.824C18.9373 52.776 18.9693 52.752 18.996 52.752C19.0333 52.752 19.1347 52.8213 19.3 52.96C19.396 52.768 19.5027 52.512 19.62 52.192H14.948C14.932 52.608 14.836 52.8907 14.66 53.04C14.484 53.184 14.324 53.256 14.18 53.256C14.036 53.256 13.924 53.2267 13.844 53.168C13.7693 53.1093 13.732 53.032 13.732 52.936C13.732 52.8347 13.82 52.736 13.996 52.64C14.1773 52.5387 14.34 52.392 14.484 52.2C14.6333 52.0027 14.7213 51.7867 14.748 51.552H14.924C14.94 51.7013 14.948 51.8373 14.948 51.96H16.996ZM18.572 57.72H15.684V58.056C15.684 58.1147 15.66 58.1573 15.612 58.184C15.5693 58.216 15.4787 58.256 15.34 58.304C15.2067 58.3573 15.108 58.384 15.044 58.384C15.0173 58.384 15.004 58.3627 15.004 58.32L15.02 57.752C15.0253 57.5813 15.028 57.4027 15.028 57.216V56.36C15.028 56.136 15.02 55.9093 15.004 55.68C15.3293 55.8187 15.5587 55.928 15.692 56.008H18.436L18.684 55.68C18.7267 55.6267 18.7613 55.6 18.788 55.6C18.82 55.6 18.9587 55.6827 19.204 55.848C19.4493 56.008 19.572 56.112 19.572 56.16C19.572 56.208 19.4733 56.2667 19.276 56.336V57.744L19.284 58.072C19.284 58.1147 19.2573 58.152 19.204 58.184C19.156 58.216 19.06 58.256 18.916 58.304C18.772 58.352 18.6787 58.376 18.636 58.376C18.5933 58.376 18.572 58.336 18.572 58.256V57.72ZM15.684 57.488H18.572L18.58 56.24H15.684V57.488ZM26.94 52.288C26.908 52.2667 26.8653 52.2053 26.812 52.104C26.6413 51.7253 26.3747 51.3867 26.012 51.088L26.1 50.952C26.532 51.0693 26.8573 51.1867 27.076 51.304C27.3 51.4213 27.412 51.5627 27.412 51.728C27.412 51.808 27.3853 51.912 27.332 52.04C27.2787 52.168 27.2147 52.2507 27.14 52.288H28.356C28.6813 51.6853 28.9 51.1973 29.012 50.824C29.284 50.92 29.5053 51.0213 29.676 51.128C29.8467 51.2293 29.932 51.2933 29.932 51.32C29.932 51.3573 29.8707 51.3893 29.748 51.416C29.6307 51.4427 29.5133 51.5093 29.396 51.616C29.2787 51.7173 29.0653 51.9413 28.756 52.288H30.188L30.42 51.944C30.484 51.8533 30.5427 51.808 30.596 51.808C30.6547 51.808 30.796 51.9013 31.02 52.088C31.244 52.2747 31.356 52.3947 31.356 52.448C31.356 52.496 31.3053 52.52 31.204 52.52H28.124C28.044 52.808 27.9613 53.08 27.876 53.336H29.5L29.732 53.032C29.8067 52.936 29.868 52.888 29.916 52.888C29.964 52.888 30.092 52.9813 30.3 53.168C30.508 53.3493 30.612 53.464 30.612 53.512C30.612 53.56 30.5507 53.584 30.428 53.584H27.788C27.7133 53.808 27.612 54.0747 27.484 54.384H30.308L30.588 53.976C30.6627 53.8693 30.7213 53.816 30.764 53.816C30.8067 53.816 30.9507 53.92 31.196 54.128C31.4413 54.3307 31.564 54.464 31.564 54.528C31.564 54.5867 31.4973 54.616 31.364 54.616H27.38C27.2573 54.8933 27.1347 55.1307 27.012 55.328H29.412L29.548 55.136C29.6013 55.056 29.652 55.016 29.7 55.016C29.7533 55.016 29.9027 55.0907 30.148 55.24C30.3987 55.3893 30.524 55.4933 30.524 55.552C30.524 55.6107 30.3907 55.688 30.124 55.784L29.892 57.712H30.436L30.708 57.304C30.7773 57.2027 30.8387 57.152 30.892 57.152C30.9507 57.152 31.0973 57.256 31.332 57.464C31.572 57.6773 31.692 57.816 31.692 57.88C31.692 57.9227 31.6253 57.944 31.492 57.944H25.556C25.412 57.944 25.3 57.9627 25.22 58L25.076 57.672C25.188 57.6987 25.3213 57.712 25.476 57.712H27.372L27.548 56.712H26.636C26.492 56.712 26.38 56.7307 26.3 56.768L26.18 56.488C25.6787 57.0373 25.028 57.5733 24.228 58.096L24.116 57.968C25.3053 57.0453 26.1773 55.928 26.732 54.616H24.788C24.644 54.616 24.532 54.6347 24.452 54.672L24.308 54.344C24.42 54.3707 24.5533 54.384 24.708 54.384H26.828C26.9187 54.1653 27.0093 53.8987 27.1 53.584H25.396C25.252 53.584 25.14 53.6027 25.06 53.64L24.916 53.296C25.028 53.3227 25.1613 53.336 25.316 53.336H27.164C27.228 53.0693 27.284 52.7973 27.332 52.52H24.988C24.844 52.52 24.732 52.5387 24.652 52.576L24.508 52.248C24.62 52.2747 24.7533 52.288 24.908 52.288H26.94ZM29.356 56.464L29.46 55.56H28.42L28.252 56.464H29.356ZM26.868 55.56C26.692 55.8427 26.484 56.1227 26.244 56.4C26.2707 56.4053 26.3187 56.4187 26.388 56.44C26.4573 56.456 26.5267 56.464 26.596 56.464H27.588L27.748 55.56H26.868ZM29.228 57.712L29.332 56.712H28.204L28.02 57.712H29.228Z" fill="#4E4E4E"/>
    <path d="M1.19511 28.4569C-2.34602 18.191 2.52298 9.71036 8.7199 3.46184C13.6631 -1.52254 26.9499 -0.338198 32.1797 2.12279C38.8193 5.2472 42.803 14.6203 42.803 23.1007C42.803 36.2356 33.9503 43.186 19.7859 41.847C10.9331 41.0101 4.44672 37.8834 1.19511 28.4569Z" fill="#F9B6CE"/>
    <path d="M7.92645 26.1572C6.73748 26.1572 4.35959 26.5537 4.35956 27.3463C4.35953 28.0608 6.70611 28.139 8.3228 28.139C10.3044 28.139 12.5502 28.139 12.286 27.3464C12.0219 26.5538 9.11543 26.1572 7.92645 26.1572Z" fill="#F29DBB"/>
    <path d="M25.7611 27.3464C25.3255 28.2174 27.7427 28.5354 29.328 28.5354C30.1206 28.5354 33.1327 28.2976 32.4986 27.3464C31.9701 26.5537 30.517 26.1574 28.9317 26.1574C27.3464 26.1574 26.1574 26.5538 25.7611 27.3464Z" fill="#F29DBB"/>
    <path d="M10.7007 23.3831L11.0971 24.9684M24.9684 23.3831L25.3647 24.9684" stroke="black" stroke-width="1.5" stroke-linecap="round"/>
    <path d="M7.53015 18.6274C8.48133 17.3591 9.51177 16.6456 11.0971 17.0419M24.1758 17.4384C26.1574 17.0419 27.3464 18.3232 27.7427 19.4199" stroke="black" stroke-width="0.8" stroke-linecap="round"/>
    <path d="M15.853 34.084C16.6456 35.6693 21.7978 36.0656 22.9868 34.084" stroke="black" stroke-linecap="round"/>
    <path d="M6.34117 26.9501L5.54852 28.5354M9.11544 26.9501L8.32279 28.5354M11.4934 26.9501L11.0971 28.5354M26.5537 26.9501L26.95 28.5354M28.9317 26.9501L29.328 28.5354M30.9133 26.9501L31.7059 28.5354" stroke="#961141" stroke-width="0.6" stroke-linecap="round"/>
</svg>

