<svg width="43" height="59" viewBox="0 0 43 59" fill="none" xmlns="http://www.w3.org/2000/svg">
    <path d="M15.916 49.816C16.7587 50.024 17.18 50.2853 17.18 50.6C17.18 50.7173 17.1293 50.8347 17.028 50.952C16.932 51.064 16.8147 51.12 16.676 51.12C16.5373 51.12 16.4573 51.0373 16.436 50.872C16.3933 50.5467 16.1987 50.2347 15.852 49.936L15.916 49.816ZM14.772 51.16H18.572L18.94 50.688C18.988 50.6293 19.0333 50.6 19.076 50.6C19.1187 50.6 19.252 50.712 19.476 50.936C19.7053 51.1547 19.82 51.2907 19.82 51.344C19.82 51.392 19.756 51.416 19.628 51.416H14.524C14.4813 53.0107 14.412 54.064 14.316 54.576C14.2253 55.0827 14.044 55.5413 13.772 55.952C13.5 56.3627 13.0493 56.848 12.42 57.408L12.316 57.304C12.844 56.6747 13.1987 56.1467 13.38 55.72C13.5613 55.288 13.6947 54.6773 13.78 53.888C13.268 54.3467 12.9667 54.6827 12.876 54.896C12.8493 54.9547 12.8173 54.984 12.78 54.984C12.7427 54.984 12.7107 54.9733 12.684 54.952C12.6573 54.9253 12.6067 54.84 12.532 54.696C12.4627 54.552 12.396 54.3973 12.332 54.232C12.7 54.104 13.1907 53.8987 13.804 53.616C13.8253 53.3173 13.836 52.888 13.836 52.328C13.836 51.768 13.8227 51.2533 13.796 50.784C14.0947 50.8747 14.42 51 14.772 51.16ZM12.756 51.224C13.012 51.48 13.212 51.7093 13.356 51.912C13.5 52.1093 13.572 52.288 13.572 52.448C13.572 52.6027 13.5213 52.7413 13.42 52.864C13.324 52.9813 13.2253 53.04 13.124 53.04C13.0707 53.04 13.0307 53.0213 13.004 52.984C12.9773 52.9467 12.9613 52.8853 12.956 52.8C12.9507 52.7147 12.948 52.6053 12.948 52.472C12.948 52.3333 12.9213 52.1467 12.868 51.912C12.8147 51.6773 12.7427 51.48 12.652 51.32L12.756 51.224ZM16.772 52.448C16.772 51.9893 16.7587 51.6587 16.732 51.456C17.0307 51.4987 17.2573 51.5467 17.412 51.6C17.5667 51.648 17.644 51.6933 17.644 51.736C17.644 51.7893 17.5613 51.856 17.396 51.936V52.448H18.332L18.524 52.176C18.5773 52.1013 18.6253 52.064 18.668 52.064C18.7107 52.064 18.8387 52.1653 19.052 52.368C19.2653 52.5653 19.372 52.6933 19.372 52.752C19.372 52.8107 19.2973 52.84 19.148 52.84C18.9987 52.84 18.8573 52.888 18.724 52.984C18.596 53.0747 18.3933 53.2853 18.116 53.616L17.988 53.552C18.164 53.1947 18.2813 52.912 18.34 52.704H17.396V54.016H17.932L18.204 53.76C18.252 53.7173 18.2947 53.696 18.332 53.696C18.3693 53.696 18.4387 53.7387 18.54 53.824L18.844 54.064C18.94 54.1387 18.988 54.1973 18.988 54.24C18.988 54.2827 18.9373 54.3173 18.836 54.344C18.7347 54.3653 18.66 54.3973 18.612 54.44C18.564 54.4827 18.4893 54.5813 18.388 54.736C18.0947 55.184 17.804 55.552 17.516 55.84C18.012 56.1387 18.828 56.4 19.964 56.624V56.808C19.708 56.808 19.5053 56.8347 19.356 56.888C19.2067 56.9467 19.0787 57.0507 18.972 57.2C18.9453 57.2427 18.9133 57.264 18.876 57.264C18.7907 57.264 18.516 57.1307 18.052 56.864C17.5933 56.5973 17.2733 56.3813 17.092 56.216C16.5747 56.6373 15.764 57.024 14.66 57.376L14.604 57.232C15.5053 56.8053 16.22 56.3467 16.748 55.856C16.4653 55.5147 16.244 54.9813 16.084 54.256H15.588C15.5187 55.0027 15.364 55.584 15.124 56C14.8893 56.416 14.436 56.872 13.764 57.368L13.668 57.248C14.1587 56.7627 14.484 56.3253 14.644 55.936C14.8093 55.5467 14.9133 55.0213 14.956 54.36C15.004 53.6987 15.028 53.2133 15.028 52.904C15.028 52.5947 15.02 52.3307 15.004 52.112C15.3027 52.2187 15.5667 52.3307 15.796 52.448H16.772ZM16.772 54.016V52.704H15.668C15.668 53.168 15.6493 53.6053 15.612 54.016H16.772ZM17.068 55.52C17.3987 55.152 17.676 54.7307 17.9 54.256H16.3C16.4707 54.784 16.7267 55.2053 17.068 55.52ZM25.476 51.184C25.2573 51.408 25.0493 51.5867 24.852 51.72C24.6547 51.848 24.3613 52 23.972 52.176L23.876 52.064C24.2813 51.728 24.604 51.4107 24.844 51.112C25.0893 50.808 25.3347 50.4133 25.58 49.928C25.9053 50.056 26.1267 50.1573 26.244 50.232C26.3613 50.3067 26.42 50.36 26.42 50.392C26.42 50.4187 26.3853 50.4453 26.316 50.472C26.1827 50.5147 26.0733 50.576 25.988 50.656H28.148L28.388 50.344C28.4253 50.2907 28.468 50.264 28.516 50.264C28.564 50.264 28.652 50.3173 28.78 50.424L29.132 50.72C29.2493 50.816 29.308 50.8933 29.308 50.952C29.308 51.0053 29.2893 51.04 29.252 51.056C29.22 51.072 29.1533 51.08 29.052 51.08C28.956 51.08 28.8787 51.0933 28.82 51.12C28.7613 51.1413 28.6947 51.184 28.62 51.248C28.252 51.5627 27.8573 51.84 27.436 52.08C28.124 52.288 28.884 52.392 29.716 52.392C30.02 52.392 30.3267 52.3787 30.636 52.352V52.528C30.4013 52.56 30.2387 52.6107 30.148 52.68C30.0573 52.7493 29.98 52.8667 29.916 53.032C29.884 53.1067 29.82 53.144 29.724 53.144C29.6333 53.144 29.428 53.1147 29.108 53.056C29.1613 53.104 29.188 53.1493 29.188 53.192C29.188 53.2293 29.1347 53.2987 29.028 53.4V54.024C29.028 54.1893 29.0333 54.432 29.044 54.752C29.076 54.8427 29.012 54.9173 28.852 54.976C28.692 55.0293 28.58 55.056 28.516 55.056C28.452 55.056 28.412 55.0427 28.396 55.016C28.38 54.9893 28.372 54.9307 28.372 54.84H25.252C25.252 54.8987 25.2413 54.9413 25.22 54.968C25.1987 54.9947 25.132 55.0267 25.02 55.064C24.9133 55.1013 24.8093 55.12 24.708 55.12C24.676 55.12 24.66 55.096 24.66 55.048L24.676 54.32V53.12C24.26 53.2267 23.7693 53.3147 23.204 53.384L23.164 53.192C24.38 52.936 25.4493 52.5627 26.372 52.072C26.0253 51.8373 25.7267 51.5413 25.476 51.184ZM25.716 50.936L25.628 51.024C25.916 51.3387 26.3053 51.6107 26.796 51.84C27.244 51.5787 27.6573 51.2773 28.036 50.936H25.716ZM26.876 52.368C26.412 52.592 25.8893 52.7867 25.308 52.952L25.356 52.984H28.356L28.42 52.912C27.828 52.7733 27.3133 52.592 26.876 52.368ZM25.252 53.752H26.508V53.256H25.252V53.752ZM27.14 53.752H28.372V53.256H27.14V53.752ZM26.508 54.016H25.252V54.576H26.508V54.016ZM28.372 54.016H27.14V54.576H28.372V54.016ZM26.364 54.912C26.8227 55.0613 27.1187 55.1813 27.252 55.272C27.3907 55.3627 27.46 55.4773 27.46 55.616C27.46 55.7493 27.4253 55.872 27.356 55.984C27.292 56.096 27.212 56.152 27.116 56.152C27.02 56.152 26.94 56.0533 26.876 55.856C26.812 55.6587 26.7373 55.5067 26.652 55.4C26.572 55.288 26.46 55.16 26.316 55.016L26.364 54.912ZM28.444 55.384C28.4653 55.752 28.5053 56.008 28.564 56.152C28.6227 56.296 28.708 56.3947 28.82 56.448C28.932 56.5067 28.988 56.5493 28.988 56.576C28.988 56.608 28.9453 56.688 28.86 56.816C28.7747 56.9493 28.684 57.04 28.588 57.088C28.492 57.1413 28.332 57.1787 28.108 57.2C27.884 57.2213 27.604 57.232 27.268 57.232C26.9373 57.232 26.6093 57.2267 26.284 57.216C25.964 57.2053 25.74 57.1947 25.612 57.184C25.484 57.1733 25.3747 57.144 25.284 57.096C25.1987 57.048 25.1373 56.9813 25.1 56.896C25.0627 56.8107 25.044 56.6853 25.044 56.52V55.64C25.044 55.5173 25.0387 55.3467 25.028 55.128C25.172 55.1547 25.3427 55.192 25.54 55.24C25.7373 55.2827 25.852 55.312 25.884 55.328C25.916 55.344 25.932 55.3627 25.932 55.384C25.932 55.432 25.8547 55.4987 25.7 55.584V56.384C25.7 56.4853 25.7213 56.5467 25.764 56.568C25.812 56.5947 25.9667 56.6133 26.228 56.624C26.4893 56.6347 26.7293 56.64 26.948 56.64C27.172 56.64 27.3933 56.6293 27.612 56.608C27.8307 56.592 27.9587 56.5733 27.996 56.552C28.0333 56.5307 28.0653 56.4933 28.092 56.44C28.1187 56.392 28.1427 56.304 28.164 56.176C28.1853 56.0533 28.22 55.7867 28.268 55.376L28.444 55.384ZM28.844 55.144C29.2067 55.3733 29.4787 55.5653 29.66 55.72C29.8413 55.8693 29.9613 55.9973 30.02 56.104C30.084 56.216 30.116 56.336 30.116 56.464C30.116 56.5973 30.0787 56.7227 30.004 56.84C29.9293 56.9627 29.852 57.024 29.772 57.024C29.692 57.024 29.6333 56.9973 29.596 56.944C29.5587 56.8907 29.5027 56.7467 29.428 56.512C29.3587 56.2773 29.276 56.0693 29.18 55.888C29.084 55.7067 28.932 55.5013 28.724 55.272L28.844 55.144ZM24.372 55.256C24.436 55.5973 24.468 55.896 24.468 56.152C24.468 56.408 24.38 56.616 24.204 56.776C24.028 56.936 23.868 57.016 23.724 57.016C23.5853 57.016 23.476 56.984 23.396 56.92C23.316 56.8613 23.276 56.792 23.276 56.712C23.276 56.632 23.364 56.536 23.54 56.424C23.716 56.312 23.8493 56.176 23.94 56.016C24.0307 55.8613 24.1107 55.6027 24.18 55.24L24.372 55.256Z" fill="#4E4E4E"/>
    <path d="M0.40912 19.8891C1.9561 12.6745 4.4197 5.86102 12.441 1.45215C17.5672 -1.36544 31.6921 0.249692 36.1038 3.45613C41.3339 7.25735 43.724 17.885 42.1198 25.0995C40.5155 32.3139 33.6974 40.33 20.0613 40.33C6.42508 40.33 -1.99726 31.1115 0.40912 19.8891Z" fill="#9A9DAB"/>
    <path d="M11.6763 28.3464C9.50489 31.2314 11.2885 34.624 12.4518 35.9597C12.9688 36.6275 15.0885 38.2035 19.4313 39.1652C24.8598 40.3673 27.1863 38.7645 29.125 35.9597C31.0638 33.1548 30.676 31.9526 29.125 28.3464C27.574 24.7401 27.1863 25.1408 22.1455 23.9387C17.1048 22.7366 14.3905 24.7401 11.6763 28.3464Z" fill="#9698A2"/>
    <path d="M18.2743 31.9596C17.888 31.9594 17.5017 31.5356 17.5016 30.688C17.5016 29.8403 18.6922 29.4225 20.9786 29.8406C23.2966 30.2645 23.2966 31.9595 21.7513 31.9595" stroke="black" stroke-width="0.5" stroke-linecap="round"/>
    <path d="M8.47653 20.5455C8.19151 19.8236 8.47653 19.0236 9.37785 18.2627C9.66729 18.0183 10.7298 17.5017 11.1805 17.5017C11.8178 17.5017 13.1151 17.6131 13.4338 17.8822L13.4339 17.8823C13.8846 18.2629 14.7857 19.0238 14.3351 20.5455C13.941 21.8763 12.9831 22.0674 12.0818 22.0674C10.0664 22.0674 8.92719 21.6869 8.47653 20.5455Z" fill="#8C8F9A"/>
    <path d="M26.7259 20.5455C26.4765 19.8236 26.7259 19.0236 27.5145 18.2627C27.7678 18.0183 28.6975 17.5017 29.0918 17.5017C29.6495 17.5017 30.7847 17.6131 31.0635 17.8822L31.0636 17.8823C31.458 18.2629 32.2464 19.0238 31.8521 20.5455C31.5073 21.8763 30.6691 22.0674 29.8805 22.0674C28.117 22.0674 27.1202 21.6869 26.7259 20.5455Z" fill="#8C8F9A"/>
    <path d="M11.0337 19.0236L11.4142 20.165M28.5354 19.0236L28.9158 20.165" stroke="black" stroke-linecap="round"/>
    <path d="M9.54859 21.3064C10.177 22.0369 11.1196 22.0166 11.5123 21.9152M28.7931 22.2195C29.5786 22.2195 30.7568 22.2195 31.1495 21.9152M8.37036 21.3064C8.68456 21.7934 9.54859 22.1181 9.94134 22.2195M30.7568 22.8283C31.3852 22.8283 32.3278 22.4224 32.7205 22.2195" stroke="#676161" stroke-width="0.3" stroke-linecap="round"/>
    <path d="M12.936 29.3459V29.743M15.3457 33.3161V33.7131M27.3939 34.5071V34.9041M24.9843 28.1549V28.5519M20.5666 28.1549V28.5519M21.3698 34.9041V35.3011M25.7875 36.4922V36.8892M18.5586 36.8892V37.2862M13.3376 35.6982V36.0952" stroke="#837B7B" stroke-width="0.3" stroke-linecap="round"/>
    <path d="M26.9374 14.4579C28.7637 14.4579 30.5899 14.7115 31.9596 15.2188M13.697 14.4579C11.8707 14.4579 8.67477 14.4579 6.84851 15.2188" stroke="black" stroke-width="0.4" stroke-linecap="round"/>
</svg>
