<svg width="48" height="59" viewBox="0 0 48 59" fill="none" xmlns="http://www.w3.org/2000/svg">
    <path d="M5.044 54.72L1.244 55.352C1.116 55.368 1.012 55.408 0.932 55.472L0.724 55.136C0.862667 55.136 0.996 55.1253 1.124 55.104L5.044 54.448V50.608C5.044 50.3413 5.03867 50.104 5.028 49.896C5.74267 50.056 6.1 50.1813 6.1 50.272C6.1 50.336 5.996 50.4027 5.788 50.472V54.32L6.844 54.144L7.084 53.576C7.116 53.5013 7.156 53.464 7.204 53.464C7.252 53.464 7.43867 53.56 7.764 53.752C8.09467 53.944 8.26 54.0667 8.26 54.12C8.26 54.168 8.20667 54.2 8.1 54.216L5.788 54.6V56.104C5.788 56.4027 5.79067 56.6107 5.796 56.728L5.812 57.048C5.812 57.0853 5.78533 57.1173 5.732 57.144C5.684 57.1707 5.572 57.2133 5.396 57.272C5.22533 57.336 5.11867 57.368 5.076 57.368C5.03867 57.368 5.02 57.3387 5.02 57.28L5.036 56.832C5.04133 56.6773 5.044 56.4373 5.044 56.112V54.72ZM2.716 50.592C3.30267 50.8213 3.7 51.0107 3.908 51.16C4.12133 51.3093 4.228 51.4613 4.228 51.616C4.228 51.7707 4.18267 51.9227 4.092 52.072C4.00667 52.216 3.91067 52.288 3.804 52.288C3.71333 52.288 3.63333 52.2027 3.564 52.032C3.45733 51.7653 3.33467 51.5413 3.196 51.36C3.06267 51.1733 2.876 50.9627 2.636 50.728L2.716 50.592ZM2.02 52.568C2.5 52.6747 2.89467 52.7973 3.204 52.936C3.51333 53.0693 3.668 53.2507 3.668 53.48C3.668 53.6293 3.63067 53.784 3.556 53.944C3.48133 54.0987 3.388 54.176 3.276 54.176C3.22267 54.176 3.18 54.16 3.148 54.128C3.12133 54.0907 3.08933 54.032 3.052 53.952C2.83333 53.504 2.46533 53.088 1.948 52.704L2.02 52.568ZM14.748 51.792H12.292C12.148 51.792 12.036 51.8107 11.956 51.848L11.796 51.48C11.908 51.5067 12.0413 51.52 12.196 51.52H14.748V50.552C14.748 50.1413 14.7427 49.8907 14.732 49.8C14.9027 49.8373 15.1133 49.8933 15.364 49.968C15.62 50.0373 15.7667 50.0827 15.804 50.104C15.8467 50.1253 15.868 50.152 15.868 50.184C15.868 50.2427 15.7613 50.3307 15.548 50.448V51.52H17.524L17.844 51.08C17.892 51.016 17.94 50.984 17.988 50.984C18.0413 50.984 18.1213 51.032 18.228 51.128L18.604 51.48C18.748 51.608 18.82 51.6933 18.82 51.736C18.82 51.7733 18.7667 51.792 18.66 51.792H15.548V53.104H16.724L17.084 52.64C17.1213 52.592 17.156 52.568 17.188 52.568C17.2467 52.568 17.3987 52.68 17.644 52.904C17.8947 53.128 18.02 53.2587 18.02 53.296C18.02 53.3387 17.9693 53.36 17.868 53.36H12.94C12.796 53.36 12.684 53.3787 12.604 53.416L12.444 53.064C12.556 53.0907 12.6893 53.104 12.844 53.104H14.748V51.792ZM14.82 53.64C15.2093 53.8747 15.5053 54.0933 15.708 54.296C15.916 54.4987 16.02 54.696 16.02 54.888C16.02 55.08 15.9613 55.2373 15.844 55.36C15.7267 55.4827 15.6147 55.544 15.508 55.544C15.4067 55.544 15.3453 55.448 15.324 55.256C15.2653 54.7227 15.0653 54.224 14.724 53.76L14.82 53.64ZM16.82 54.704C16.8147 55.232 16.836 55.5867 16.884 55.768C16.932 55.944 17.036 56.0987 17.196 56.232C17.2493 56.28 17.276 56.32 17.276 56.352C17.276 56.3893 17.2013 56.4987 17.052 56.68C16.9027 56.8613 16.7347 56.9707 16.548 57.008C16.3667 57.0453 15.9613 57.064 15.332 57.064C14.916 57.064 14.5827 57.0427 14.332 57C14.0813 56.9573 13.9267 56.8933 13.868 56.808C13.8147 56.7227 13.788 56.536 13.788 56.248V54.6C13.788 54.3813 13.78 54.1627 13.764 53.944C14.404 54.104 14.724 54.232 14.724 54.328C14.724 54.3867 14.6413 54.4533 14.476 54.528V56.088C14.476 56.2107 14.4867 56.288 14.508 56.32C14.5293 56.352 14.6013 56.3733 14.724 56.384C14.852 56.3947 15.0333 56.4 15.268 56.4C15.748 56.4 16.0493 56.3733 16.172 56.32C16.3 56.272 16.3853 56.1547 16.428 55.968C16.476 55.776 16.5373 55.3547 16.612 54.704H16.82ZM16.98 54.008C17.5347 54.328 17.964 54.632 18.268 54.92C18.572 55.2027 18.724 55.488 18.724 55.776C18.724 55.9787 18.6707 56.1547 18.564 56.304C18.4627 56.4533 18.3507 56.528 18.228 56.528C18.1427 56.528 18.0813 56.504 18.044 56.456C18.012 56.4133 17.9773 56.312 17.94 56.152C17.78 55.4 17.42 54.7307 16.86 54.144L16.98 54.008ZM12.948 54.144C13.0333 54.5867 13.076 54.9627 13.076 55.272C13.076 55.7573 12.9667 56.1093 12.748 56.328C12.5293 56.5467 12.316 56.656 12.108 56.656C11.9853 56.656 11.8787 56.6293 11.788 56.576C11.6973 56.5227 11.652 56.448 11.652 56.352C11.652 56.256 11.7293 56.152 11.884 56.04C12.204 55.816 12.428 55.5547 12.556 55.256C12.684 54.952 12.7613 54.5813 12.788 54.144H12.948ZM26.332 51.024H27.156V50.52C27.156 50.3333 27.148 50.1307 27.132 49.912C27.452 49.96 27.6867 50.008 27.836 50.056C27.9907 50.0987 28.068 50.1467 28.068 50.2C28.068 50.2587 27.98 50.3253 27.804 50.4V51.024H28.404L28.676 50.608C28.7133 50.5493 28.7507 50.52 28.788 50.52C28.8307 50.52 28.9693 50.624 29.204 50.832C29.444 51.0347 29.564 51.1653 29.564 51.224C29.564 51.2613 29.4973 51.28 29.364 51.28H27.804V51.296C27.804 51.5307 27.8067 51.6933 27.812 51.784L27.82 52.048C27.82 52.0853 27.7933 52.12 27.74 52.152C27.692 52.184 27.5987 52.2267 27.46 52.28C27.3213 52.328 27.2307 52.352 27.188 52.352C27.1667 52.352 27.156 52.3227 27.156 52.264V51.28H26.332V52.056C26.332 52.1147 26.3133 52.1573 26.276 52.184C26.2387 52.2107 26.1507 52.2453 26.012 52.288C25.8733 52.3307 25.772 52.352 25.708 52.352C25.6813 52.352 25.668 52.3307 25.668 52.288L25.684 52.008C25.6947 51.816 25.7 51.5733 25.7 51.28H24.996C24.8573 51.28 24.7453 51.296 24.66 51.328L24.468 50.984C24.58 51.0107 24.7133 51.024 24.868 51.024H25.7V50.48C25.7 50.304 25.692 50.1093 25.676 49.896C25.9107 49.9387 26.1213 49.9867 26.308 50.04C26.5 50.0933 26.596 50.1467 26.596 50.2C26.596 50.248 26.508 50.32 26.332 50.416V51.024ZM22.812 50.08C23.3933 50.2667 23.7773 50.4133 23.964 50.52C24.1507 50.6213 24.244 50.744 24.244 50.888C24.244 51.0267 24.196 51.176 24.1 51.336C24.0093 51.4907 23.9267 51.568 23.852 51.568C23.8093 51.568 23.7747 51.5547 23.748 51.528C23.7267 51.5013 23.6893 51.4347 23.636 51.328C23.444 50.9493 23.1453 50.5787 22.74 50.216L22.812 50.08ZM24.484 51.584L23.804 53.944C23.6653 54.4347 23.596 54.872 23.596 55.256C23.596 55.6347 23.6253 56.0453 23.684 56.488C23.6947 56.5733 23.7 56.6747 23.7 56.792C23.7 56.9093 23.6733 57.0133 23.62 57.104C23.572 57.2 23.5027 57.248 23.412 57.248C23.2147 57.248 23.06 57.192 22.948 57.08C22.8413 56.9733 22.788 56.8267 22.788 56.64C22.788 56.5653 22.796 56.488 22.812 56.408C22.8813 56.0773 22.916 55.776 22.916 55.504C22.916 55.2267 22.8787 55.0533 22.804 54.984C22.7347 54.9093 22.5107 54.8347 22.132 54.76L22.14 54.584C22.3107 54.5947 22.4387 54.6 22.524 54.6C22.7373 54.6 22.8867 54.5547 22.972 54.464C23.0573 54.3733 23.1773 54.152 23.332 53.8L24.324 51.52L24.484 51.584ZM22.252 51.752C22.7747 51.9387 23.1187 52.0853 23.284 52.192C23.4493 52.2933 23.532 52.424 23.532 52.584C23.532 52.744 23.492 52.8853 23.412 53.008C23.3373 53.1307 23.252 53.192 23.156 53.192C23.1133 53.192 23.076 53.176 23.044 53.144C23.0173 53.1067 22.9667 53 22.892 52.824C22.8227 52.648 22.7427 52.4987 22.652 52.376C22.5667 52.2533 22.412 52.088 22.188 51.88L22.252 51.752ZM25.3 53.576H25.812L25.852 52.688H24.956C24.8227 52.688 24.708 52.7013 24.612 52.728L24.476 52.384C24.588 52.4107 24.7213 52.424 24.876 52.424H28.396L28.62 52.072C28.6573 52.0133 28.6947 51.984 28.732 51.984C28.7747 51.984 28.908 52.0747 29.132 52.256C29.356 52.432 29.468 52.5493 29.468 52.608C29.468 52.6613 29.412 52.688 29.3 52.688H27.852C27.836 52.9973 27.812 53.2933 27.78 53.576H28.388L28.58 53.344C28.612 53.296 28.6467 53.272 28.684 53.272C28.7213 53.272 28.8147 53.328 28.964 53.44C29.1133 53.5467 29.2173 53.6213 29.276 53.664C29.3347 53.7013 29.364 53.7387 29.364 53.776C29.364 53.8133 29.276 53.8827 29.1 53.984V56.216C29.1 56.4827 29.0707 56.6773 29.012 56.8C28.9533 56.9227 28.8227 57.0347 28.62 57.136C28.4227 57.2427 28.292 57.296 28.228 57.296C28.1853 57.296 28.156 57.2587 28.14 57.184C28.1027 57.04 28.0307 56.92 27.924 56.824C27.8227 56.7333 27.612 56.6293 27.292 56.512L27.332 56.36C27.716 56.44 27.9667 56.48 28.084 56.48C28.2013 56.48 28.284 56.4613 28.332 56.424C28.38 56.3867 28.404 56.28 28.404 56.104V53.824H27.748C27.7 54.1547 27.6413 54.44 27.572 54.68C27.7853 54.808 27.948 54.92 28.06 55.016C28.1773 55.1067 28.236 55.224 28.236 55.368C28.236 55.5067 28.2013 55.6347 28.132 55.752C28.068 55.8693 27.9853 55.928 27.884 55.928C27.7827 55.928 27.7293 55.8533 27.724 55.704C27.708 55.3787 27.6387 55.1013 27.516 54.872C27.3293 55.4747 26.8973 56.0427 26.22 56.576L26.092 56.464C26.476 56.0533 26.7427 55.6613 26.892 55.288C27.0467 54.9093 27.148 54.4213 27.196 53.824H26.356C26.3507 53.8987 26.3267 54.048 26.284 54.272C26.476 54.3413 26.62 54.4107 26.716 54.48C26.812 54.5493 26.86 54.6293 26.86 54.72C26.86 54.8053 26.828 54.912 26.764 55.04C26.7053 55.1627 26.636 55.224 26.556 55.224C26.4813 55.224 26.436 55.1707 26.42 55.064C26.404 54.904 26.3347 54.728 26.212 54.536C26.036 55.1867 25.7053 55.784 25.22 56.328L25.148 56.28V57.024C25.148 57.0613 25.1427 57.0907 25.132 57.112C25.1213 57.1387 25.02 57.1867 24.828 57.256C24.6413 57.3307 24.5347 57.368 24.508 57.368C24.4867 57.368 24.476 57.3413 24.476 57.288L24.492 56.912C24.5027 56.6613 24.508 56.4267 24.508 56.208V54.064C24.508 53.6747 24.5027 53.3973 24.492 53.232C24.7693 53.3227 25.0387 53.4373 25.3 53.576ZM26.388 53.576H27.212L27.26 52.688H26.46C26.444 53.024 26.42 53.32 26.388 53.576ZM25.788 53.824H25.148V56.168C25.5213 55.4213 25.7347 54.64 25.788 53.824ZM37.052 51.024H37.876V50.52C37.876 50.3333 37.868 50.1307 37.852 49.912C38.172 49.96 38.4067 50.008 38.556 50.056C38.7107 50.0987 38.788 50.1467 38.788 50.2C38.788 50.2587 38.7 50.3253 38.524 50.4V51.024H39.124L39.396 50.608C39.4333 50.5493 39.4707 50.52 39.508 50.52C39.5507 50.52 39.6893 50.624 39.924 50.832C40.164 51.0347 40.284 51.1653 40.284 51.224C40.284 51.2613 40.2173 51.28 40.084 51.28H38.524V51.296C38.524 51.5307 38.5267 51.6933 38.532 51.784L38.54 52.048C38.54 52.0853 38.5133 52.12 38.46 52.152C38.412 52.184 38.3187 52.2267 38.18 52.28C38.0413 52.328 37.9507 52.352 37.908 52.352C37.8867 52.352 37.876 52.3227 37.876 52.264V51.28H37.052V52.056C37.052 52.1147 37.0333 52.1573 36.996 52.184C36.9587 52.2107 36.8707 52.2453 36.732 52.288C36.5933 52.3307 36.492 52.352 36.428 52.352C36.4013 52.352 36.388 52.3307 36.388 52.288L36.404 52.008C36.4147 51.816 36.42 51.5733 36.42 51.28H35.716C35.5773 51.28 35.4653 51.296 35.38 51.328L35.188 50.984C35.3 51.0107 35.4333 51.024 35.588 51.024H36.42V50.48C36.42 50.304 36.412 50.1093 36.396 49.896C36.6307 49.9387 36.8413 49.9867 37.028 50.04C37.22 50.0933 37.316 50.1467 37.316 50.2C37.316 50.248 37.228 50.32 37.052 50.416V51.024ZM33.532 50.08C34.1133 50.2667 34.4973 50.4133 34.684 50.52C34.8707 50.6213 34.964 50.744 34.964 50.888C34.964 51.0267 34.916 51.176 34.82 51.336C34.7293 51.4907 34.6467 51.568 34.572 51.568C34.5293 51.568 34.4947 51.5547 34.468 51.528C34.4467 51.5013 34.4093 51.4347 34.356 51.328C34.164 50.9493 33.8653 50.5787 33.46 50.216L33.532 50.08ZM35.204 51.584L34.524 53.944C34.3853 54.4347 34.316 54.872 34.316 55.256C34.316 55.6347 34.3453 56.0453 34.404 56.488C34.4147 56.5733 34.42 56.6747 34.42 56.792C34.42 56.9093 34.3933 57.0133 34.34 57.104C34.292 57.2 34.2227 57.248 34.132 57.248C33.9347 57.248 33.78 57.192 33.668 57.08C33.5613 56.9733 33.508 56.8267 33.508 56.64C33.508 56.5653 33.516 56.488 33.532 56.408C33.6013 56.0773 33.636 55.776 33.636 55.504C33.636 55.2267 33.5987 55.0533 33.524 54.984C33.4547 54.9093 33.2307 54.8347 32.852 54.76L32.86 54.584C33.0307 54.5947 33.1587 54.6 33.244 54.6C33.4573 54.6 33.6067 54.5547 33.692 54.464C33.7773 54.3733 33.8973 54.152 34.052 53.8L35.044 51.52L35.204 51.584ZM32.972 51.752C33.4947 51.9387 33.8387 52.0853 34.004 52.192C34.1693 52.2933 34.252 52.424 34.252 52.584C34.252 52.744 34.212 52.8853 34.132 53.008C34.0573 53.1307 33.972 53.192 33.876 53.192C33.8333 53.192 33.796 53.176 33.764 53.144C33.7373 53.1067 33.6867 53 33.612 52.824C33.5427 52.648 33.4627 52.4987 33.372 52.376C33.2867 52.2533 33.132 52.088 32.908 51.88L32.972 51.752ZM36.02 53.576H36.532L36.572 52.688H35.676C35.5427 52.688 35.428 52.7013 35.332 52.728L35.196 52.384C35.308 52.4107 35.4413 52.424 35.596 52.424H39.116L39.34 52.072C39.3773 52.0133 39.4147 51.984 39.452 51.984C39.4947 51.984 39.628 52.0747 39.852 52.256C40.076 52.432 40.188 52.5493 40.188 52.608C40.188 52.6613 40.132 52.688 40.02 52.688H38.572C38.556 52.9973 38.532 53.2933 38.5 53.576H39.108L39.3 53.344C39.332 53.296 39.3667 53.272 39.404 53.272C39.4413 53.272 39.5347 53.328 39.684 53.44C39.8333 53.5467 39.9373 53.6213 39.996 53.664C40.0547 53.7013 40.084 53.7387 40.084 53.776C40.084 53.8133 39.996 53.8827 39.82 53.984V56.216C39.82 56.4827 39.7907 56.6773 39.732 56.8C39.6733 56.9227 39.5427 57.0347 39.34 57.136C39.1427 57.2427 39.012 57.296 38.948 57.296C38.9053 57.296 38.876 57.2587 38.86 57.184C38.8227 57.04 38.7507 56.92 38.644 56.824C38.5427 56.7333 38.332 56.6293 38.012 56.512L38.052 56.36C38.436 56.44 38.6867 56.48 38.804 56.48C38.9213 56.48 39.004 56.4613 39.052 56.424C39.1 56.3867 39.124 56.28 39.124 56.104V53.824H38.468C38.42 54.1547 38.3613 54.44 38.292 54.68C38.5053 54.808 38.668 54.92 38.78 55.016C38.8973 55.1067 38.956 55.224 38.956 55.368C38.956 55.5067 38.9213 55.6347 38.852 55.752C38.788 55.8693 38.7053 55.928 38.604 55.928C38.5027 55.928 38.4493 55.8533 38.444 55.704C38.428 55.3787 38.3587 55.1013 38.236 54.872C38.0493 55.4747 37.6173 56.0427 36.94 56.576L36.812 56.464C37.196 56.0533 37.4627 55.6613 37.612 55.288C37.7667 54.9093 37.868 54.4213 37.916 53.824H37.076C37.0707 53.8987 37.0467 54.048 37.004 54.272C37.196 54.3413 37.34 54.4107 37.436 54.48C37.532 54.5493 37.58 54.6293 37.58 54.72C37.58 54.8053 37.548 54.912 37.484 55.04C37.4253 55.1627 37.356 55.224 37.276 55.224C37.2013 55.224 37.156 55.1707 37.14 55.064C37.124 54.904 37.0547 54.728 36.932 54.536C36.756 55.1867 36.4253 55.784 35.94 56.328L35.868 56.28V57.024C35.868 57.0613 35.8627 57.0907 35.852 57.112C35.8413 57.1387 35.74 57.1867 35.548 57.256C35.3613 57.3307 35.2547 57.368 35.228 57.368C35.2067 57.368 35.196 57.3413 35.196 57.288L35.212 56.912C35.2227 56.6613 35.228 56.4267 35.228 56.208V54.064C35.228 53.6747 35.2227 53.3973 35.212 53.232C35.4893 53.3227 35.7587 53.4373 36.02 53.576ZM37.108 53.576H37.932L37.98 52.688H37.18C37.164 53.024 37.14 53.32 37.108 53.576ZM36.508 53.824H35.868V56.168C36.2413 55.4213 36.4547 54.64 36.508 53.824Z" fill="#4E4E4E"/>
    <path d="M2.21972 33.196C-0.950895 28.8542 -0.758125 16.9467 3.01233 10.6055C4.54761 8.0235 9.5958 3.01275 12.5241 1.88644C15.4524 0.760131 22.8286 -0.983796 28.3771 0.697634C34.7183 2.61926 38.6712 7.01817 41.0595 11.7946C43.8337 17.3432 43.5957 24.9684 42.803 28.9317C42.0896 32.4986 37.2545 36.9953 32.8949 38.8398C28.5353 40.6842 21.5943 42.1564 15.6947 40.7262C8.26135 38.9242 5.08736 37.123 2.21972 33.196Z" fill="#F4BE31"/>
    <path d="M7.92645 11.097L9.90807 13.475M23.3831 13.8713L27.7427 11.8897" stroke="black" stroke-linecap="round"/>
    <path d="M9.14764 17.4384L8.71918 19.8163M23.3832 17.8347L22.9547 20.2126" stroke="black" stroke-width="1.5" stroke-linecap="round"/>
    <path d="M13.559 26.1634C13.3434 26.3359 13.3084 26.6505 13.4809 26.8662C13.6534 27.0818 13.9681 27.1167 14.1837 26.9442L13.559 26.1634ZM15.853 24.9685L16.1436 24.5616C15.9615 24.4316 15.7153 24.4383 15.5406 24.5781L15.853 24.9685ZM18.3366 27.357C18.5613 27.5175 18.8736 27.4655 19.0341 27.2407C19.1946 27.016 19.1426 26.7038 18.9178 26.5433L18.3366 27.357ZM14.1837 26.9442L16.1653 25.3589L15.5406 24.5781L13.559 26.1634L14.1837 26.9442ZM15.5623 25.3754L18.3366 27.357L18.9178 26.5433L16.1436 24.5616L15.5623 25.3754Z" fill="black"/>
    <path d="M42.803 16.6457C35.6692 11.8898 26.1574 7.74768 19.4199 7.53034C13.4504 7.33778 7.9265 7.92667 3.96326 9.11564L7.13385 5.54872C16.6456 1.98167 27.3464 3.6036 39.6324 9.51182C43.1994 7.17047 43.992 5.94487 45.9736 6.34119L47.5589 10.3044C45.0224 10.3044 42.4067 10.8329 40.8214 11.4934C47.7967 14.0299 47.9552 13.4749 47.9552 13.8713C47.4268 14.3997 47.9552 16.6457 46.3699 16.6457C45.4188 16.6457 43.0602 15.1925 41.6141 13.4751C42.1945 14.2604 42.803 16.6457 42.803 16.6457Z" fill="#C52136"/>
</svg>
